<svg width="81" height="83" viewBox="0 0 81 83" fill="none" xmlns="http://www.w3.org/2000/svg">
<path d="M41.2539 0.5C42.85 0.5071 44.51 0.663031 45.5742 0.984375C49.7261 2.23798 53.515 6.09543 54.8135 10.3682C55.1417 11.4482 55.3117 12.2551 55.4004 14.6592C55.4884 17.0454 55.4984 21.0446 55.5 28.5176C55.5018 36.1183 55.4963 40.1088 55.4072 42.4453C55.3173 44.8043 55.1396 45.5241 54.792 46.5732C53.3121 51.0395 50.1332 54.2862 45.7617 55.7832C44.7391 56.1333 44.0198 56.3111 41.6865 56.4023C39.3751 56.4927 35.4328 56.5 27.9521 56.5C20.6159 56.5 16.6642 56.4901 14.3047 56.4023C11.929 56.314 11.1249 56.1455 10.0947 55.8184C8.94093 55.4519 7.51646 54.842 6.92188 54.4395C4.89089 53.0644 2.65104 50.4754 1.59277 48.2773C1.09622 47.2462 0.805451 46.5986 0.655273 45.7373C0.509233 44.8995 0.498706 43.8697 0.5 42.0742C0.501295 40.2737 0.513327 39.244 0.663086 38.4004C0.816828 37.5347 1.11362 36.8767 1.62207 35.8174C3.07173 32.7973 5.33355 30.4761 8.26953 29.0059L10.542 27.8682L10.6416 27.8184L10.7539 27.8154L18.2646 27.6426C20.3257 27.5949 22.265 27.5195 23.7275 27.4365C24.4594 27.395 25.0682 27.3517 25.5117 27.3096C25.7341 27.2884 25.9098 27.268 26.0361 27.249C26.0994 27.2395 26.1448 27.2313 26.1748 27.2246C26.1778 27.224 26.1802 27.2222 26.1826 27.2217C26.3485 27.1393 26.4655 27.0402 26.5664 26.8584C26.6828 26.6485 26.7897 26.31 26.8721 25.7275C27.0373 24.5584 27.0811 22.6014 27.0811 19.2061C27.0811 13.6948 27.1766 12.2404 27.7217 10.4609C29.1556 5.77734 32.4313 2.43516 37.0508 0.950195C38.0371 0.633123 39.6619 0.492946 41.2539 0.5ZM43.9961 4.56641C38.9613 3.20395 34.1136 5.50446 31.6934 10.4648C31.4683 10.9261 31.3172 11.2369 31.2031 11.5879C31.091 11.9329 31.0102 12.3328 30.9502 12.9561C30.8282 14.223 30.8011 16.3243 30.748 20.5928L30.6426 29.1094L30.6396 29.3105L30.499 29.4541L29.6875 30.2783L28.876 31.1035L28.7314 31.25L28.5254 31.2529L20.1465 31.3604C15.323 31.4222 12.8742 31.4834 11.2451 31.8701C9.68697 32.2401 8.89323 32.9033 7.39062 34.332C1.86342 39.5872 3.34991 48.4775 10.3447 51.8008L12.1992 52.6816H43.6143L45.3457 51.8564C47.8221 50.6759 49.5071 49.0042 50.6943 46.5527L51.708 44.46V28.6543C51.708 19.5784 51.7095 15.1171 51.3779 12.5312C51.2142 11.2544 50.973 10.4761 50.6309 9.84082C50.3696 9.3557 50.0424 8.93782 49.6045 8.43066L49.1279 7.8877C47.4657 6.00634 46.1135 5.13945 43.9961 4.56641Z" fill="url(#paint0_linear_254_206)" stroke="#0750A1"/>
<path d="M40.4922 82.5C38.9249 82.4929 37.2931 82.3377 36.2461 82.0156C32.1654 80.7603 28.4465 76.8998 27.1729 72.6299C26.8509 71.5506 26.6847 70.7435 26.5977 68.3398C26.5113 65.9538 26.5016 61.955 26.5 54.4824C26.4982 46.8812 26.5044 42.891 26.5918 40.5547C26.68 38.1964 26.8534 37.4771 27.1943 36.4287C28.6461 31.9652 31.7662 28.7165 36.0615 27.2178C37.067 26.867 37.775 26.6889 40.0664 26.5977C42.3356 26.5073 46.2052 26.5 53.5469 26.5C60.7471 26.5 64.6262 26.5099 66.9424 26.5977C69.2752 26.6861 70.0662 26.8548 71.0791 27.1826C72.2122 27.5493 73.6114 28.1601 74.1963 28.5635C76.1912 29.9395 78.3895 32.5292 79.4277 34.7266C79.9151 35.7577 80.2005 36.4037 80.3477 37.2637C80.4909 38.1006 80.5013 39.1298 80.5 40.9258C80.4987 42.7266 80.4867 43.7549 80.3398 44.5977C80.1892 45.4625 79.8987 46.1199 79.3994 47.1797C77.977 50.1988 75.7564 52.5206 72.8721 53.9922L70.6426 55.1299L70.541 55.1816L70.4268 55.1846L63.0547 55.3574C61.0321 55.4051 59.1295 55.4805 57.6943 55.5635C56.9764 55.605 56.3793 55.6483 55.9443 55.6904C55.7263 55.7115 55.5541 55.7321 55.4307 55.751C55.3686 55.7605 55.3239 55.7688 55.2949 55.7754C55.2923 55.776 55.2902 55.7778 55.2881 55.7783C55.1292 55.8593 55.0157 55.9566 54.917 56.1377C54.8023 56.3483 54.6971 56.688 54.6162 57.2715C54.4539 58.4414 54.4111 60.3989 54.4111 63.7939C54.4111 69.3051 54.3177 70.7581 53.7832 72.5361C52.3767 77.2172 49.1615 80.562 44.6221 82.0488C43.6514 82.3667 42.055 82.507 40.4922 82.5ZM37.8047 78.4336C42.735 79.793 47.4888 77.5009 49.8652 72.5381C50.0861 72.0769 50.2336 71.7656 50.3457 71.4141C50.4559 71.0685 50.5368 70.6685 50.5957 70.0449C50.7155 68.7774 50.7419 66.6755 50.7939 62.4072L50.8975 53.8906L50.8994 53.6924L51.0371 53.5498L52.6309 51.8994L52.7754 51.75L52.9834 51.7471L61.207 51.6396C65.9425 51.5778 68.3439 51.5161 69.9404 51.1299C71.4655 50.7609 72.2425 50.1001 73.7178 48.6709C79.1461 43.4123 77.6799 34.5187 70.8203 31.1982L69.002 30.3184L38.1777 30.3184L36.4834 31.1416L36.0371 31.3682C33.8505 32.5322 32.3283 34.1441 31.2354 36.4434L30.2402 38.5361L30.2402 54.3457C30.2402 63.4212 30.2389 67.8832 30.5645 70.4697C30.7252 71.7471 30.9619 72.5263 31.2979 73.1621C31.6399 73.8091 32.0978 74.3363 32.7734 75.1152C34.4048 76.9964 35.73 77.8615 37.8047 78.4336Z" fill="url(#paint1_linear_254_206)" stroke="#0750A1"/>
<path d="M40.4287 35.5H41.5713C41.991 35.5 42.2139 35.7846 42.2139 36V41H47.8574C48.277 41.0001 48.5 41.2846 48.5 41.5V42.5C48.5 42.7154 48.277 42.9999 47.8574 43H42.2139V48C42.2139 48.2154 41.991 48.5 41.5713 48.5H40.4287C40.009 48.5 39.7861 48.2154 39.7861 48V43H34.1426C33.723 42.9999 33.5 42.7154 33.5 42.5V41.5C33.5 41.2846 33.723 41.0001 34.1426 41H39.7861V36C39.7861 35.7846 40.009 35.5 40.4287 35.5Z" fill="#0750A1" stroke="#0750A1"/>
<defs>
<linearGradient id="paint0_linear_254_206" x1="28" y1="1" x2="28" y2="56" gradientUnits="userSpaceOnUse">
<stop stop-color="#0750A1"/>
<stop offset="1" stop-color="#0750A1"/>
</linearGradient>
<linearGradient id="paint1_linear_254_206" x1="53.5" y1="82" x2="53.5" y2="27" gradientUnits="userSpaceOnUse">
<stop stop-color="#0750A1"/>
<stop offset="1" stop-color="#0750A1"/>
</linearGradient>
</defs>
</svg>
