<svg width="44" height="44" viewBox="0 0 44 44" fill="none" xmlns="http://www.w3.org/2000/svg">
<path d="M21.873 0.5C22.7078 0.503632 23.5954 0.582644 24.1797 0.755859C26.41 1.41696 28.4354 3.44206 29.1328 5.69531C29.3112 6.27164 29.4017 6.70537 29.4482 7.94434C29.4941 9.16504 29.4992 11.207 29.5 15.0088C29.5009 18.8755 29.4976 20.9137 29.4512 22.1094C29.4039 23.328 29.3098 23.7194 29.1201 24.2812C28.3279 26.6282 26.6223 28.3372 24.2852 29.123C23.728 29.3103 23.3312 29.4031 22.1055 29.4502C20.9012 29.4964 18.8512 29.5 14.9756 29.5C11.1743 29.5 9.11954 29.4951 7.89062 29.4502C6.64578 29.4047 6.20609 29.3174 5.64551 29.1426C5.04098 28.9541 4.27663 28.6352 3.93945 28.4111C2.85144 27.6879 1.66012 26.3368 1.0918 25.1777C0.834654 24.6534 0.669619 24.2959 0.584961 23.8193C0.504503 23.3663 0.499335 22.8167 0.5 21.9102C0.500666 21.0014 0.506391 20.4523 0.588867 19.9961C0.675441 19.5173 0.844216 19.1536 1.10742 18.6152C1.88292 17.0293 3.09482 15.8092 4.66504 15.0371L5.84277 14.457L5.94238 14.4082L6.05273 14.4062L9.94727 14.3184C11.0138 14.2941 12.0164 14.2549 12.7715 14.2129C13.1495 14.1918 13.4618 14.1705 13.6875 14.1494C13.801 14.1388 13.8878 14.1289 13.9473 14.1201C13.9579 14.1185 13.9669 14.1165 13.9746 14.1152C14.008 14.0962 14.0271 14.0786 14.0479 14.042C14.086 13.9746 14.1357 13.8378 14.1768 13.5527C14.2593 12.979 14.2832 12.0027 14.2832 10.2686C14.2832 7.47063 14.33 6.69078 14.626 5.74219C15.3939 3.27932 17.1533 1.5194 19.6221 0.740234C20.17 0.567336 21.0425 0.496395 21.873 0.5ZM23.2334 3.05371C20.7354 2.39005 18.3351 3.50433 17.1299 5.92969C17.0118 6.16736 16.9423 6.3097 16.8896 6.46875C16.839 6.62166 16.7995 6.80588 16.7695 7.11133C16.7076 7.74272 16.6936 8.79734 16.666 10.9775L16.6113 15.3135L16.6084 15.5176L16.4639 15.6611L15.6221 16.501L15.4785 16.6445L15.2754 16.6465L10.9307 16.7012C8.41651 16.7328 7.17855 16.7654 6.36523 16.9551C5.62261 17.1283 5.25101 17.4274 4.47656 18.1504C1.74513 20.7001 2.46631 25.0156 5.94531 26.6387L6.86035 27.0654H23.0439L23.8936 26.668C25.1297 26.0895 25.9624 25.2768 26.5527 24.0801L27.0527 23.0654V15.0781C27.0527 10.4467 27.052 8.19895 26.8828 6.90332C26.8003 6.27181 26.6821 5.90758 26.5244 5.62012C26.3602 5.32092 26.1398 5.07445 25.7783 4.67285C24.9443 3.74602 24.2819 3.33229 23.2334 3.05371Z" fill="#047051" stroke="#047051"/>
<path d="M22.127 43.5C21.2922 43.4964 20.4046 43.4174 19.8203 43.2441C17.59 42.583 15.5646 40.5579 14.8672 38.3047C14.6888 37.7284 14.5983 37.2946 14.5518 36.0557C14.5059 34.835 14.5008 32.793 14.5 28.9912C14.4991 25.1245 14.5024 23.0863 14.5488 21.8906C14.5961 20.672 14.6902 20.2806 14.8799 19.7187C15.6721 17.3718 17.3777 15.6628 19.7148 14.877C20.272 14.6897 20.6688 14.5969 21.8945 14.5498C23.0988 14.5036 25.1488 14.5 29.0244 14.5C32.8257 14.5 34.8805 14.5049 36.1094 14.5498C37.3542 14.5953 37.7939 14.6826 38.3545 14.8574C38.959 15.0459 39.7234 15.3648 40.0605 15.5889C41.1486 16.3121 42.3399 17.6632 42.9082 18.8223C43.1653 19.3466 43.3304 19.7041 43.415 20.1807C43.4955 20.6337 43.5007 21.1833 43.5 22.0898C43.4993 22.9986 43.4936 23.5477 43.4111 24.0039C43.3246 24.4827 43.1558 24.8464 42.8926 25.3848C42.1171 26.9707 40.9052 28.1908 39.335 28.9629L38.1572 29.543L38.0576 29.5918L37.9473 29.5937L34.0527 29.6816C32.9862 29.7058 31.9836 29.7451 31.2285 29.7871C30.8505 29.8082 30.5382 29.8295 30.3125 29.8506C30.199 29.8612 30.1122 29.8711 30.0527 29.8799C30.0421 29.8815 30.0331 29.8835 30.0254 29.8848C29.992 29.9038 29.9729 29.9214 29.9521 29.958C29.914 30.0254 29.8643 30.1622 29.8232 30.4473C29.7407 31.021 29.7168 31.9973 29.7168 33.7314C29.7168 36.5294 29.67 37.3092 29.374 38.2578C28.6061 40.7207 26.8467 42.4806 24.3779 43.2598C23.83 43.4327 22.9575 43.5036 22.127 43.5ZM20.7666 40.9463C23.2646 41.6099 25.6649 40.4957 26.8701 38.0703C26.9882 37.8326 27.0577 37.6903 27.1104 37.5312C27.161 37.3783 27.2005 37.1941 27.2305 36.8887C27.2924 36.2573 27.3064 35.2027 27.334 33.0225L27.3887 28.6865L27.3916 28.4824L27.5361 28.3389L28.3779 27.499L28.5215 27.3555L28.7246 27.3535L33.0693 27.2988C35.5835 27.2672 36.8215 27.2346 37.6348 27.0449C38.3774 26.8717 38.749 26.5726 39.5234 25.8496C42.2549 23.2999 41.5337 18.9844 38.0547 17.3613L37.1397 16.9346L20.9561 16.9346L20.1064 17.332C18.8703 17.9105 18.0376 18.7232 17.4473 19.9199L16.9473 20.9346L16.9473 28.9219C16.9473 33.5533 16.948 35.801 17.1172 37.0967C17.1997 37.7282 17.3179 38.0924 17.4756 38.3799C17.6398 38.6791 17.8602 38.9255 18.2217 39.3271C19.0557 40.254 19.7181 40.6677 20.7666 40.9463Z" fill="#047051" stroke="#047051"/>
<path d="M21.7139 18.5H22.2861C22.3253 18.5002 22.3573 18.5321 22.3574 18.5713V21.6426H25.4287C25.4679 21.6427 25.4998 21.6747 25.5 21.7139V22.2861C25.4998 22.3253 25.4679 22.3573 25.4287 22.3574H22.3574V25.4287C22.3573 25.4679 22.3253 25.4998 22.2861 25.5H21.7139C21.6747 25.4998 21.6427 25.4679 21.6426 25.4287V22.3574H18.5713C18.5321 22.3573 18.5002 22.3253 18.5 22.2861V21.7139C18.5002 21.6747 18.5321 21.6427 18.5713 21.6426H21.6426V18.5713C21.6427 18.5321 21.6747 18.5002 21.7139 18.5Z" fill="#047051" stroke="#047051"/>
</svg>
