<svg width="62" height="90" viewBox="0 0 62 90" fill="none" xmlns="http://www.w3.org/2000/svg">
<path d="M39.1484 9C42.0501 17.9908 41.389 32.5903 22.3099 42.564C3.23081 52.5378 6.16193 73.5813 6.16193 73.5813C9.95738 95.4988 47.8517 97.4079 59.4587 67.4388C71.0657 37.4697 39.1484 9 39.1484 9ZM21.5091 75.6819C47.6225 62.1964 43.5004 37.4704 43.5004 37.4704C46.402 73.4325 21.5091 75.6819 21.5091 75.6819Z" fill="#047051"/>
<path d="M20.4612 5.63075C20.0701 4.12356 17.9299 4.12356 17.5388 5.63075V5.63075C17.2263 6.83523 15.6725 7.16549 14.8971 6.19227V6.19227C13.9267 4.97447 11.9717 5.84493 12.2274 7.38088V7.38088C12.4318 8.60836 11.1467 9.54205 10.0424 8.96837V8.96837C8.66066 8.25052 7.22865 9.84092 8.087 11.1401V11.1401C8.77296 12.1783 7.97872 13.554 6.73661 13.479V13.479C5.18233 13.3853 4.521 15.4206 5.83356 16.2583V16.2583C6.8825 16.9278 6.71646 18.5076 5.55125 18.9443V18.9443C4.09321 19.4908 4.31691 21.6192 5.85672 21.8506V21.8506C7.08727 22.0356 7.57814 23.5463 6.69131 24.4192V24.4192C5.5816 25.5115 6.65165 27.3649 8.15246 26.95V26.95C9.35185 26.6185 10.4148 27.7989 9.95965 28.9571V28.9571C9.39016 30.4063 11.1215 31.6643 12.3239 30.6748V30.6748C13.2847 29.8841 14.7358 30.5302 14.7911 31.7733V31.7733C14.8603 33.3289 16.9537 33.7738 17.6496 32.3809V32.3809C18.2058 31.2677 19.7942 31.2677 20.3504 32.3809V32.3809C21.0463 33.7738 23.1397 33.3289 23.2089 31.7733V31.7733C23.2642 30.5302 24.7153 29.8841 25.6761 30.6748V30.6748C26.8785 31.6643 28.6098 30.4063 28.0404 28.9571V28.9571C27.5852 27.7989 28.6481 26.6185 29.8475 26.95V26.95C31.3483 27.3649 32.4184 25.5115 31.3087 24.4192V24.4192C30.4219 23.5463 30.9127 22.0356 32.1433 21.8506V21.8506C33.6831 21.6192 33.9068 19.4908 32.4488 18.9443V18.9443C31.2835 18.5076 31.1175 16.9278 32.1664 16.2583V16.2583C33.479 15.4206 32.8177 13.3853 31.2634 13.479V13.479C30.0213 13.554 29.227 12.1783 29.913 11.1401V11.1401C30.7714 9.84092 29.3393 8.25052 27.9576 8.96837V8.96837C26.8533 9.54205 25.5682 8.60836 25.7726 7.38088V7.38088C26.0283 5.84493 24.0733 4.97447 23.1029 6.19227V6.19227C22.3275 7.16549 20.7737 6.83523 20.4612 5.63075V5.63075Z" fill="#047051"/>
</svg>
