<?xml version="1.0" encoding="utf-8"?>
<!-- Generator: Adobe Illustrator 27.5.0, SVG Export Plug-In . SVG Version: 6.00 Build 0)  -->
<svg version="1.1" id="Layer_2" xmlns="http://www.w3.org/2000/svg" xmlns:xlink="http://www.w3.org/1999/xlink" x="0px" y="0px"
	 viewBox="0 0 330.906 400" style="enable-background:new 0 0 330.906 400;" xml:space="preserve">
<g>
	<g>
		<g>
			<path style="fill:#718786;" d="M225.153,227.137c0,0,1.55-5.048-2.8-9.76c-4.35-4.712-12.863-14.927-57.471-14.927h1.143
				c-44.608,0-53.121,10.215-57.471,14.927c-4.35,4.712-2.8,9.76-2.8,9.76l15.086,48l89.543,0.233L225.153,227.137z"/>
			<path style="opacity:0.7;fill:#718786;" d="M225.153,227.137c0,0,1.55-5.048-2.8-9.76c-4.35-4.712-12.863-14.927-57.471-14.927
				h1.143c-44.608,0-53.121,10.215-57.471,14.927c-4.35,4.712-2.8,9.76-2.8,9.76l15.086,48l89.543,0.233L225.153,227.137z"/>
		</g>
		<path style="fill:#594A42;" d="M119.748,390h91.411V270.056l-7.026-24.416c0,0,8.607-17.038-2.81-26.172
			c-10.18-8.144-31.39-4.977-35.869-4.195c-4.479-0.782-25.689-3.949-35.869,4.195c-11.417,9.134-2.81,26.172-2.81,26.172
			l-7.026,24.416V390z"/>
		<path style="opacity:0.8;fill:#594A42;" d="M165.453,321.797c-22.448,0-41.197-20.238-45.705-47.224V390h91.411V274.573
			C206.65,301.559,187.901,321.797,165.453,321.797z"/>
		<g>
			<rect x="163.533" y="255.276" style="fill:#718786;" width="3.841" height="134.724"/>
			<rect x="163.533" y="255.276" style="opacity:0.4;fill:#718786;" width="3.841" height="17.032"/>
			<polygon style="fill:#718786;" points="167.966,255.276 162.323,255.276 160.158,269.207 170.749,269.207 			"/>
		</g>
		<g>
			<g>
				<path style="fill:#718786;" d="M163.175,390c-1.451-15.123-7.239-30.408-12.174-44.388
					c-6.902-19.555-16.281-38.347-21.918-58.321c-3.456-12.247-3.885-24.788-6.295-37.206c-1.381-7.115-2.214-15.974-6.723-21.793
					c-2.44-3.149-7.698-1.131-8.866-5.558c-0.453-1.719,0.382-3.861,1.201-5.357c0,0-5.707,3.58-4.87,9.102
					c0.837,5.522,11.546,34.973,9.036,37.985c-2.51,3.012-65.093,21.251-74.798,32.965c0,0-21.757,30.79-29.496,92.572H163.175z"/>
				<path style="opacity:0.5;fill:#718786;" d="M163.175,390c-1.451-15.123-7.239-30.408-12.173-44.388
					c-6.902-19.555-16.281-38.347-21.918-58.321c-1.173-4.157-1.994-8.348-2.665-12.557c-0.989,2.245-2.179,4.399-3.639,6.367
					c-3.135,4.226-7.674,7.309-12.132,9.996c-2.614,1.576-5.316,3-8.052,4.352c-2.166,1.07-4.338,2.142-6.575,3.058
					c-3.882,1.588-7.854,2.994-11.522,5.055c-3.377,1.898-6.793,4.465-7.174,8.601c-0.417,4.517,1.418,8.968,3.558,12.842
					c4.249,7.697,10.308,14.212,15.326,21.392c2.161,3.092,4.266,6.235,6.03,9.575c1.748,3.31,3.379,7.001,3.494,10.802
					c0.106,3.488-1.545,6.478-4.674,8.087c-4.196,2.158-8.982,2.533-13.502,1.243c-4.586-1.309-8.672-4.05-12.167-7.237
					c-3.524-3.213-6.576-6.985-9.039-11.066c-3.059-5.068-5.281-10.649-7.484-16.126c-1.21-3.009-2.397-6.027-3.652-9.017
					c-1.285-3.06-2.695-6.063-4.062-9.087c-1.343-2.971-2.697-5.939-4.172-8.847c-1.151-2.269-2.409-4.475-3.53-6.76
					c-0.975-1.987-1.97-3.978-3.208-5.817c-0.855-1.271-1.92-2.679-3.305-3.456C32.881,305.036,15.11,335.425,8.274,390H163.175z"/>
				<path style="opacity:0.8;fill:#718786;" d="M74.457,390c-11.038-53.405-26.995-79.967-36.991-92.126
					c-2.64,3.962-21.989,34.613-29.193,92.126H74.457z"/>
				<g>
					<path style="fill:#6D6E71;" d="M79.803,306.92c23.554,24.715,54.58,63.192,70.323,83.08h13.049
						c-1.451-15.123-7.239-30.408-12.173-44.388c-6.902-19.555-16.281-38.347-21.918-58.321
						c-3.456-12.247-3.885-24.788-6.295-37.206c-1.381-7.115-2.213-15.974-6.723-21.793c-1.712-2.209-4.81-1.877-6.91-3.01
						c-2.325,10.139,9.621,42.721,6.341,51.74C111.788,287.22,79.803,306.92,79.803,306.92z"/>
					<path style="fill:#E6E7E8;" d="M152.763,390h0.54c-13.192-16.597-45.603-56.845-69.861-82.618
						c4.013-2.553,11.57-7.518,18.619-13.019c8.897-6.942,14.152-12.51,15.62-16.547c1.929-5.306-0.453-16.277-2.976-27.893
						c-1.722-7.93-3.526-18.638-3.534-23.93c-0.142-0.035-0.282-0.073-0.422-0.111c-0.017,5.289,1.804,16.124,3.543,24.131
						c2.509,11.554,4.88,22.467,2.992,27.658c-3.391,9.325-27.099,24.931-34.285,29.491l-0.216,0.137l0.176,0.186
						C107.099,333.105,139.411,373.208,152.763,390z"/>
				</g>
			</g>
			<g>
				<path style="fill:#718786;" d="M322.634,390c-7.739-61.783-29.496-92.572-29.496-92.572
					c-9.705-11.713-72.288-29.953-74.798-32.965c-2.51-3.012,8.199-32.463,9.036-37.985c0.837-5.522-4.87-9.102-4.87-9.102
					c0.819,1.496,1.654,3.637,1.201,5.357c-1.167,4.427-6.426,2.41-8.866,5.558c-4.51,5.82-5.343,14.679-6.723,21.793
					c-2.41,12.418-2.838,24.959-6.295,37.206c-5.637,19.974-15.016,38.767-21.918,58.321c-4.935,13.98-10.723,29.265-12.174,44.388
					H322.634z"/>
				<path style="opacity:0.5;fill:#718786;" d="M322.633,390c-6.836-54.575-24.608-84.964-28.661-91.311
					c-1.385,0.777-2.449,2.185-3.305,3.456c-1.238,1.839-2.233,3.831-3.208,5.817c-1.121,2.285-2.379,4.491-3.53,6.76
					c-1.475,2.908-2.829,5.876-4.172,8.847c-1.367,3.024-2.777,6.026-4.062,9.087c-1.255,2.99-2.442,6.009-3.652,9.017
					c-2.204,5.477-4.426,11.058-7.484,16.126c-2.463,4.081-5.515,7.854-9.039,11.066c-3.495,3.187-7.581,5.928-12.167,7.237
					c-4.52,1.29-9.306,0.914-13.502-1.243c-3.129-1.609-4.78-4.599-4.674-8.087c0.115-3.801,1.746-7.491,3.494-10.802
					c1.764-3.34,3.868-6.483,6.03-9.575c5.018-7.18,11.077-13.695,15.326-21.392c2.139-3.875,3.974-8.326,3.558-12.842
					c-0.382-4.136-3.797-6.703-7.174-8.601c-3.667-2.061-7.64-3.466-11.522-5.055c-2.237-0.915-4.409-1.988-6.575-3.058
					c-2.736-1.352-5.438-2.776-8.052-4.352c-4.458-2.687-8.998-5.77-12.132-9.996c-1.459-1.968-2.65-4.122-3.639-6.367
					c-0.671,4.208-1.492,8.4-2.665,12.557c-5.637,19.974-15.016,38.767-21.918,58.321c-4.935,13.98-10.723,29.265-12.174,44.388
					H322.633z"/>
				<path style="opacity:0.8;fill:#718786;" d="M322.634,390c-7.204-57.513-26.552-88.164-29.193-92.126
					c-9.996,12.159-25.953,38.721-36.991,92.126H322.634z"/>
				<g>
					<path style="fill:#6D6E71;" d="M180.78,390c15.743-19.887,46.77-58.365,70.323-83.08c0,0-31.985-19.701-35.693-29.899
						c-3.28-9.019,8.666-41.601,6.341-51.74c-2.1,1.133-5.198,0.801-6.91,3.01c-4.51,5.82-5.343,14.679-6.723,21.793
						c-2.41,12.418-2.838,24.959-6.295,37.206c-5.637,19.974-15.016,38.767-21.918,58.321c-4.935,13.98-10.723,29.265-12.174,44.388
						H180.78z"/>
					<path style="fill:#E6E7E8;" d="M228.846,294.363c7.049,5.501,14.606,10.466,18.619,13.019
						c-24.258,25.773-56.669,66.021-69.861,82.618h0.54c13.352-16.792,45.664-56.895,69.804-82.514l0.176-0.186l-0.216-0.137
						c-7.186-4.561-30.894-20.166-34.285-29.491c-1.887-5.191,0.483-16.105,2.992-27.658c1.739-8.007,3.56-18.843,3.543-24.131
						c-0.139,0.038-0.28,0.075-0.422,0.111c-0.008,5.293-1.812,16-3.534,23.93c-2.523,11.616-4.905,22.587-2.976,27.893
						C214.694,281.853,219.949,287.421,228.846,294.363z"/>
				</g>
			</g>
		</g>
	</g>
	<g>
		<path style="fill:#F6B897;" d="M199.416,193.158c0,0-5.442,19.501,0.227,39.455c0,0-8.863,19.708-34.53,19.708
			s-33.848-19.708-33.848-19.708c5.669-19.954,0.227-39.455,0.227-39.455H199.416z"/>
		<path style="opacity:0.7;fill:#F6B897;" d="M165.266,227.782c2.314-0.287,17.379-2.675,31.844-17.523
			c0.328-10.007,2.306-17.101,2.306-17.101h-67.925c0,0,2.031,7.28,2.319,17.494C148.155,225.148,162.972,227.498,165.266,227.782z"
			/>
	</g>
	<g>
		<g>
			<path style="fill:#F6B897;" d="M225.337,103.741c-2.192-6.849-5.351-13.343-9.874-18.965
				c-4.297-5.341-9.438-10.025-15.136-13.834c-5.617-3.755-11.79-6.663-18.265-8.595c-6.483-1.934-13.246-2.887-20.01-2.828
				c-7.238,0.064-14.415,1.424-21.15,4.088c-6.344,2.509-12.255,6.075-17.616,10.278c-5.178,4.06-10.038,8.657-14.037,13.897
				c-1.162,1.522-2.275,3.13-3.269,4.812c-0.378,4.976-0.58,10.375-0.58,16.238c0,99.839,55.468,108.788,60.09,109.361
				c4.622-0.572,60.09-9.522,60.09-109.361c0-1.506-0.014-2.979-0.04-4.425C225.471,104.186,225.408,103.963,225.337,103.741z"/>
			<path style="fill:#E7D1BF;" d="M107.805,140.555c0,0-9.882-42.476,24.607-56.955l-28.633-25.054c0,0-17.896,32.375-9.11,56.127
				C103.454,138.425,107.805,140.555,107.805,140.555z"/>
			<path style="opacity:0.69;fill:#E7D1BF;" d="M107.805,140.555c0,0-9.882-42.476,24.607-56.955l-28.633-25.054
				c0,0-17.896,32.375-9.11,56.127C103.454,138.425,107.805,140.555,107.805,140.555z"/>
			<path style="opacity:0.69;fill:#E7D1BF;" d="M99.257,113.54c1.692-3.244,4.041-6.128,6.777-8.548
				c2.14-1.893,4.515-3.513,7.039-4.851c3.909-6.634,9.992-12.617,19.34-16.541l-28.633-25.054c0,0-17.896,32.375-9.11,56.127
				c0.755,2.04,1.476,3.918,2.165,5.651C97.327,117.967,98.14,115.682,99.257,113.54z"/>
			<g>
				<g>
					<g>
						<path style="fill:#231F20;" d="M112.759,107.148c0,0,6.103-3,12.103-0.207c6,2.793,20.793,10.552,25.965,9.931
							s2.793-6.207,0.724-7.345c0,0,1.969,2.165,1.47,4.313c0,0-0.45-3.647-5.646-5.596c0,0,2.148,1.349,2.748,2.848
							c-1.648-0.884-3.302-1.755-4.959-2.622c-2.483-1.299-4.972-2.587-7.481-3.837c-2.303-1.147-4.572-2.366-7.046-3.119
							c-2.837-0.864-5.709-1.227-8.51-0.011c-0.515,0.223-1.01,0.492-1.481,0.796c0,0,2.198-0.949,4.447-0.749
							C125.092,101.55,116.812,102.504,112.759,107.148z"/>
						<g>
							<path style="fill:#FFFFFF;" d="M144.932,129.802c0,0-3.374-8.808-13.44-8.808s-12.754,4.69-12.754,4.69
								s4.69,7.664,15.27,7.664C141.729,133.348,144.932,129.802,144.932,129.802z"/>
							<g>
								<path style="fill:#27AAE1;" d="M127.261,126.973c0,3.508,2.844,6.352,6.352,6.352c3.508,0,6.352-2.844,6.352-6.352
									s-2.844-6.352-6.352-6.352C130.105,120.621,127.261,123.465,127.261,126.973z"/>
								<circle style="fill:#241F20;" cx="133.613" cy="126.973" r="3.642"/>
								<circle style="fill:#FFFFFF;" cx="136.899" cy="125.677" r="2.292"/>
							</g>
							<path style="fill:#231F20;" d="M129.609,119.789c-0.171-0.104-0.343-0.207-0.514-0.311c-0.426-0.258-0.849-0.522-1.277-0.776
								c-0.244-0.144-0.49-0.307-0.743-0.456c-0.044-0.034-0.091-0.059-0.142-0.079c-0.181-0.101-0.365-0.194-0.556-0.259
								c-0.14-0.048-0.429,0.114-0.291,0.274c0.386,0.448,0.8,0.839,1.082,1.367c0.087,0.162,0.167,0.328,0.249,0.493
								c-0.829,0.117-1.58,0.244-2.255,0.38c-0.304-0.167-0.608-0.334-0.909-0.508c-0.871-0.505-1.718-1.187-2.658-1.556
								c-0.132-0.052-0.368,0.065-0.361,0.22c0.009,0.187,0.373,0.367,0.484,0.492c0.061,0.069,0.109,0.147,0.159,0.225
								c0.188,0.294,0.397,0.571,0.602,0.854c0.065,0.089,0.505,0.793,0.579,0.773c-0.552,0.152-1.049,0.305-1.49,0.454
								c-0.569-0.287-1.133-0.586-1.697-0.883c-0.518-0.272-1.151-0.493-1.614-0.851c-0.064-0.049-0.127-0.107-0.206-0.121
								c-0.147-0.027-0.283-0.09-0.425-0.015c-0.092,0.048-0.227,0.177-0.105,0.271c0.073,0.056,0.15,0.105,0.224,0.16
								c0.071,0.153,0.187,0.288,0.286,0.422c0.137,0.185,0.275,0.371,0.42,0.55c0.286,0.353,0.583,0.697,0.898,1.025
								c0.061,0.063,0.125,0.123,0.188,0.184c-1.738,0.639-2.727,0.8-5.428-0.551c0,0,0.8,5.661,5.87,4.334
								c4.103-1.074,13.99-9.162,24.139,2.359C144.116,128.261,140.611,118.844,129.609,119.789z"/>
							<path style="fill:#231F20;" d="M143.029,131.23c-0.038-0.079-0.133-0.113-0.212-0.074c-0.917,0.436-1.867,0.79-2.843,1.046
								c-6.822,1.819-14.566,0.249-19.655-4.789c-0.143-0.139-0.355,0.07-0.232,0.216c1.257,1.482,2.787,2.739,4.483,3.72
								c-0.073,0.092-0.134,0.192-0.196,0.295c-0.074,0.123-0.148,0.247-0.225,0.369c-0.15,0.234-0.308,0.463-0.477,0.684
								c-0.171,0.223-0.35,0.439-0.538,0.647c-0.194,0.214-0.372,0.444-0.576,0.649c-0.012,0.012-0.02,0.026-0.027,0.04
								c-0.056,0.056-0.117,0.107-0.172,0.165c-0.067,0.07-0.081,0.185,0.007,0.241c0.098,0.063,0.228,0.01,0.313-0.048
								c0.573-0.39,1.107-0.828,1.645-1.265c0.259-0.211,0.52-0.419,0.776-0.633c0.132-0.11,0.264-0.22,0.395-0.33
								c0.078-0.065,0.16-0.128,0.236-0.195c0.819,0.392,1.668,0.716,2.536,0.98c-0.01,0.014-0.024,0.025-0.032,0.04
								c-0.347,0.63-0.679,1.268-1.028,1.897c-0.168,0.302-0.33,0.608-0.496,0.911c-0.088,0.16-0.178,0.321-0.259,0.485
								c-0.017,0.034-0.038,0.074-0.059,0.117c-0.176,0.204-0.345,0.416-0.467,0.644c-0.16,0.299,0.279,0.299,0.436,0.179
								c0.354-0.272,0.649-0.642,0.945-0.974c0.297-0.333,0.595-0.666,0.89-1c0.554-0.628,1.109-1.254,1.658-1.886
								c0.852,0.18,1.717,0.302,2.586,0.366c-0.095,0.243-0.116,0.535-0.171,0.776c-0.079,0.348-0.164,0.695-0.256,1.039
								c-0.178,0.663-0.426,1.311-0.549,1.987c-0.052,0.289,0.377,0.146,0.461,0.005c0.374-0.625,0.595-1.33,0.8-2.025
								c0.098-0.332,0.187-0.667,0.265-1.004c0.039-0.168,0.075-0.337,0.11-0.506c0.016-0.076,0.038-0.159,0.052-0.242
								c0.528,0.02,1.056,0.017,1.584-0.004c0.003,0.097,0.039,0.192,0.078,0.298c0.055,0.149,0.114,0.297,0.176,0.443
								c0.119,0.284,0.244,0.566,0.376,0.844c0.271,0.573,0.588,1.096,0.988,1.588c0.13,0.16,0.477-0.079,0.411-0.261
								c-0.212-0.584-0.46-1.146-0.71-1.714c-0.12-0.274-0.234-0.55-0.341-0.828c-0.054-0.14-0.107-0.28-0.16-0.42
								c0.517-0.041,1.031-0.109,1.542-0.19c0.024,0.039,0.047,0.078,0.071,0.117c0.071,0.118,0.143,0.235,0.215,0.353
								c0.139,0.228,0.279,0.454,0.421,0.681c0.287,0.46,0.578,0.919,0.951,1.314c0.11,0.116,0.384-0.059,0.325-0.207
								c-0.195-0.496-0.48-0.949-0.754-1.404c-0.133-0.221-0.265-0.442-0.396-0.664c-0.059-0.1-0.117-0.2-0.176-0.299
								c0.814-0.156,1.617-0.36,2.401-0.619c0.983-0.354,1.943-0.785,2.818-1.352C143.038,131.389,143.064,131.303,143.029,131.23z"
								/>
							<path style="fill:#231F20;" d="M145.84,125.579c-3.539-4.516-9.204-7.068-14.884-7.239c-1.916-0.137-3.811,0.067-5.733,0.169
								c-0.119,0.008-0.152-0.181-0.03-0.208c0.943-0.23,1.894-0.485,2.857-0.618c1.945-0.238,3.935-0.264,5.868,0.099l0.729,0.118
								c0.688,0.197,1.464,0.357,2.136,0.593C140.402,119.735,144.056,122.302,145.84,125.579L145.84,125.579z"/>
						</g>
					</g>
					<g>
						<path style="fill:#231F20;" d="M215.371,107.148c0,0-6.103-3-12.103-0.207c-6,2.793-20.793,10.552-25.965,9.931
							c-5.172-0.621-2.793-6.207-0.724-7.345c0,0-1.969,2.165-1.47,4.313c0,0,0.45-3.647,5.646-5.596c0,0-2.148,1.349-2.748,2.848
							c1.648-0.884,3.302-1.755,4.959-2.622c2.483-1.299,4.972-2.587,7.481-3.837c2.303-1.147,4.572-2.366,7.046-3.119
							c2.837-0.864,5.709-1.227,8.51-0.011c0.515,0.223,1.01,0.492,1.481,0.796c0,0-2.198-0.949-4.447-0.749
							C203.037,101.55,211.317,102.504,215.371,107.148z"/>
						<g>
							<path style="fill:#FFFFFF;" d="M183.198,129.802c0,0,3.374-8.808,13.44-8.808c10.066,0,12.754,4.69,12.754,4.69
								s-4.69,7.664-15.27,7.664C186.401,133.348,183.198,129.802,183.198,129.802z"/>
							<g>
								<circle style="fill:#27AAE1;" cx="194.516" cy="126.973" r="6.352"/>
								<circle style="fill:#241F20;" cx="194.516" cy="126.973" r="3.642"/>
								<path style="fill:#FFFFFF;" d="M193.522,125.677c0,1.266-1.026,2.291-2.291,2.291c-1.266,0-2.291-1.026-2.291-2.291
									s1.026-2.292,2.291-2.292C192.496,123.386,193.522,124.411,193.522,125.677z"/>
							</g>
							<path style="fill:#231F20;" d="M198.52,119.789c0.171-0.104,0.343-0.207,0.514-0.311c0.426-0.258,0.849-0.522,1.278-0.776
								c0.244-0.144,0.49-0.307,0.743-0.456c0.044-0.034,0.091-0.059,0.142-0.079c0.181-0.101,0.365-0.194,0.556-0.259
								c0.14-0.048,0.429,0.114,0.291,0.274c-0.386,0.448-0.8,0.839-1.081,1.367c-0.087,0.162-0.167,0.328-0.249,0.493
								c0.828,0.117,1.58,0.244,2.255,0.38c0.304-0.167,0.608-0.334,0.909-0.508c0.871-0.505,1.718-1.187,2.658-1.556
								c0.132-0.052,0.368,0.065,0.361,0.22c-0.009,0.187-0.373,0.367-0.484,0.492c-0.061,0.069-0.109,0.147-0.159,0.225
								c-0.188,0.294-0.397,0.571-0.602,0.854c-0.065,0.089-0.505,0.793-0.579,0.773c0.552,0.152,1.049,0.305,1.49,0.454
								c0.57-0.287,1.133-0.586,1.697-0.883c0.518-0.272,1.151-0.493,1.614-0.851c0.064-0.049,0.127-0.107,0.206-0.121
								c0.147-0.027,0.283-0.09,0.425-0.015c0.092,0.048,0.227,0.177,0.105,0.271c-0.073,0.056-0.15,0.105-0.225,0.16
								c-0.07,0.153-0.187,0.288-0.286,0.422c-0.137,0.185-0.275,0.371-0.42,0.55c-0.286,0.353-0.583,0.697-0.898,1.025
								c-0.061,0.063-0.125,0.123-0.188,0.184c1.738,0.639,2.727,0.8,5.428-0.551c0,0-0.8,5.661-5.87,4.334
								c-4.103-1.074-13.99-9.162-24.139,2.359C184.013,128.261,187.518,118.844,198.52,119.789z"/>
							<path style="fill:#231F20;" d="M185.101,131.23c0.038-0.079,0.133-0.113,0.212-0.074c0.917,0.436,1.867,0.79,2.843,1.046
								c6.822,1.819,14.566,0.249,19.655-4.789c0.143-0.139,0.355,0.07,0.232,0.216c-1.257,1.482-2.787,2.739-4.483,3.72
								c0.073,0.092,0.134,0.192,0.196,0.295c0.074,0.123,0.148,0.247,0.225,0.369c0.15,0.234,0.308,0.463,0.477,0.684
								c0.17,0.223,0.35,0.439,0.538,0.647c0.194,0.214,0.372,0.444,0.576,0.649c0.012,0.012,0.02,0.026,0.027,0.04
								c0.056,0.056,0.117,0.107,0.172,0.165c0.067,0.07,0.081,0.185-0.007,0.241c-0.098,0.063-0.228,0.01-0.314-0.048
								c-0.573-0.39-1.107-0.828-1.645-1.265c-0.259-0.211-0.52-0.419-0.776-0.633c-0.132-0.11-0.264-0.22-0.395-0.33
								c-0.078-0.065-0.16-0.128-0.236-0.195c-0.819,0.392-1.668,0.716-2.536,0.98c0.01,0.014,0.024,0.025,0.032,0.04
								c0.347,0.63,0.679,1.268,1.028,1.897c0.167,0.302,0.33,0.608,0.496,0.911c0.088,0.16,0.178,0.321,0.259,0.485
								c0.017,0.034,0.038,0.074,0.058,0.117c0.176,0.204,0.345,0.416,0.467,0.644c0.16,0.299-0.279,0.299-0.436,0.179
								c-0.354-0.272-0.649-0.642-0.945-0.974c-0.297-0.333-0.595-0.666-0.89-1c-0.554-0.628-1.109-1.254-1.658-1.886
								c-0.852,0.18-1.716,0.302-2.586,0.366c0.095,0.243,0.116,0.535,0.171,0.776c0.079,0.348,0.164,0.695,0.256,1.039
								c0.177,0.663,0.426,1.311,0.549,1.987c0.052,0.289-0.377,0.146-0.461,0.005c-0.374-0.625-0.595-1.33-0.8-2.025
								c-0.098-0.332-0.187-0.667-0.265-1.004c-0.039-0.168-0.075-0.337-0.11-0.506c-0.016-0.076-0.038-0.159-0.052-0.242
								c-0.528,0.02-1.056,0.017-1.584-0.004c-0.003,0.097-0.039,0.192-0.078,0.298c-0.055,0.149-0.114,0.297-0.176,0.443
								c-0.119,0.284-0.244,0.566-0.375,0.844c-0.271,0.573-0.588,1.096-0.988,1.588c-0.13,0.16-0.477-0.079-0.41-0.261
								c0.212-0.584,0.46-1.146,0.709-1.714c0.12-0.274,0.234-0.55,0.341-0.828c0.054-0.14,0.107-0.28,0.16-0.42
								c-0.517-0.041-1.031-0.109-1.542-0.19c-0.024,0.039-0.047,0.078-0.071,0.117c-0.071,0.118-0.143,0.235-0.215,0.353
								c-0.139,0.228-0.28,0.454-0.421,0.681c-0.287,0.46-0.578,0.919-0.951,1.314c-0.11,0.116-0.384-0.059-0.325-0.207
								c0.196-0.496,0.48-0.949,0.754-1.404c0.133-0.221,0.265-0.442,0.396-0.664c0.059-0.1,0.117-0.2,0.176-0.299
								c-0.814-0.156-1.617-0.36-2.401-0.619c-0.983-0.354-1.943-0.785-2.818-1.352C185.092,131.389,185.066,131.303,185.101,131.23
								z"/>
							<path style="fill:#231F20;" d="M182.29,125.579c3.539-4.516,9.204-7.068,14.884-7.239c1.916-0.137,3.811,0.067,5.733,0.169
								c0.119,0.008,0.152-0.181,0.03-0.208c-0.943-0.23-1.894-0.485-2.857-0.618c-1.945-0.238-3.935-0.264-5.868,0.099
								l-0.729,0.118c-0.688,0.197-1.464,0.357-2.136,0.593C187.727,119.735,184.073,122.302,182.29,125.579L182.29,125.579z"/>
						</g>
					</g>
				</g>
				<g>
					<path style="opacity:0.3;fill:#F6B897;" d="M164.241,138.665l3.918,2.879c0.742,0.545,1.338,1.265,1.734,2.096l6.552,13.735
						c0.863,1.81,0.69,3.943-0.454,5.59l0,0c-0.679,0.977-1.647,1.718-2.775,2.098c-1.636,0.551-4.46,1.112-9.182,1.112h0.059
						c-4.721,0-7.546-0.561-9.182-1.112c-1.128-0.38-2.096-1.121-2.775-2.098l0,0c-1.144-1.647-1.317-3.78-0.453-5.59l6.552-13.735
						c0.396-0.831,0.992-1.551,1.734-2.096l3.918-2.879H164.241z"/>
					<path style="opacity:0.3;fill:#F6B897;" d="M176.445,157.375l-1.804-3.782l0.534,1.247c0.775,1.81,0.619,3.943-0.407,5.59
						c-0.609,0.977-1.478,1.718-2.49,2.098c-1.465,0.549-3.993,1.109-8.214,1.111c0.009,0,0.018,0,0.027,0h-0.053
						c0.009,0,0.018,0,0.027,0c-4.221-0.002-6.749-0.562-8.213-1.111c-1.012-0.38-1.881-1.12-2.49-2.098
						c-1.026-1.647-1.182-3.78-0.407-5.59l0.534-1.247l-1.804,3.782c-0.863,1.81-0.69,3.943,0.454,5.59
						c0.679,0.977,1.647,1.718,2.774,2.098c1.632,0.549,4.449,1.109,9.152,1.111c4.703-0.002,7.52-0.562,9.152-1.111
						c1.128-0.38,2.096-1.12,2.775-2.098C177.135,161.318,177.308,159.185,176.445,157.375z"/>
					<g>
						<path style="fill:#603913;" d="M154.345,160.703c0,0,5.653,0.446,4.761,2.455
							C158.213,165.166,154.345,160.703,154.345,160.703z"/>
						<path style="fill:#603913;" d="M174.66,160.703c0,0-5.653,0.446-4.761,2.455C170.792,165.166,174.66,160.703,174.66,160.703z"
							/>
					</g>
				</g>
				<g>
					<path style="fill:#DF7469;" d="M164.006,193.14c16.202-0.381,18.768-13.361,18.628-13.072
						c-12.462-7.149-18.219-1.558-18.62-1.433c0.037,0,0.074,0,0.111,0c-0.401-0.126-6.158-5.715-18.619,1.435
						c-0.14-0.288,2.427,12.69,18.63,13.07"/>
					<path style="fill:#DF7469;" d="M145.581,179.97c11.405,5.237,25.568,5.164,36.983-0.005c0.152-0.076,0.301,0.12,0.139,0.208
						c-1.368,0.766-2.758,1.539-4.242,2.142c-7.414,3.128-16.29,3.648-24.183,1.565c-3.164-0.818-6.188-2.04-8.848-3.709
						c-0.067-0.042-0.085-0.119-0.04-0.173C145.433,179.947,145.516,179.936,145.581,179.97L145.581,179.97z"/>
					<g>
						<path style="fill:#DF7469;" d="M182.519,179.946c0.095,0.468,1.249,0.422,1.865,0.279c0.617-0.14,1.025-0.636,0.912-1.098
							c-0.112-0.462-0.691-0.719-1.294-0.583C183.401,178.685,182.426,179.481,182.519,179.946z"/>
						<path style="fill:#DF7469;" d="M145.611,179.946c-0.095,0.468-1.249,0.422-1.865,0.279c-0.617-0.14-1.025-0.636-0.913-1.098
							c0.112-0.462,0.691-0.719,1.294-0.583C144.728,178.685,145.704,179.481,145.611,179.946z"/>
					</g>
				</g>
			</g>
			<path style="fill:#F6B897;" d="M201.639,65.332c-1.616,1.724-3.091,3.642-3.887,5.866c-0.796,2.224-0.842,4.803,0.305,6.868
				c1.171,2.108,3.382,3.408,5.575,4.411c3.126,1.43,6.836,2.445,9.925,0.936c2.719-1.328,4.225-4.258,5.372-7.057
				c1.494-3.644,2.688-7.511,2.895-11.467c0.13-2.482,0.184-7.109-2.232-8.734c-2.611-1.756-6.635,0.825-8.902,2.097
				C207.335,60.132,204.269,62.526,201.639,65.332z"/>
		</g>
		<g>
			<path style="fill:#E7D1BF;" d="M238.203,77.582c1.279,47.041-17.623,62.106-17.623,62.106c3.006-5.636,2.266-14.037,1.793-20.136
				c-0.609-7.857-2.969-15.522-6.54-22.529c-1.734-3.401-3.238-6.799-4.506-10.414c-0.689-1.967-1.319-3.955-1.887-5.961
				c-0.191-0.674-1.932-5.686-1.51-6.051c5.258-4.548,7.99-18.554,7.99-18.554s-1.821,24.084-46.548,40.477
				c0,0,6.23-8.812,13.062-12.391c-5.894,3.311-12.18,6.122-18.568,8.316c-5.987,2.056-12.284,2.576-18.572,3.056
				c-13.164,1.004-26.629-0.568-39.217,4.315c-5.285,2.05-10.256,5.631-11.493,11.481c0,0-4.06-15.285,14.141-36.981
				c0,0-15.726,12.668-16.599,28.394c0,0-11.357-29.413,12.522-63.631c0,0-9.028,11.358-15.143,12.959
				c2.757-2.954,5.402-6.02,7.97-9.139c5.426-6.589,10.854-13.676,17.964-18.696c7.915-5.588,17.767-8.095,27.234-9.456
				c11.148-1.602,22.568-0.894,33.469,1.908c0,0-13.141-6.7-33.718-3.986c0,0,46.807-14.472,74.394,23.969
				c0,0-3.392-9.497-8.819-12.663c0,0,15.376,5.653,13.341,24.647c0,0,16.101-1.867,19.984,12.24
				c3.883,14.107,0.388,25.626,0.388,25.626s0-9.965-3.753-15.531L238.203,77.582z"/>
			<path style="opacity:0.69;fill:#E7D1BF;" d="M237.96,70.958c3.753,5.565,3.753,15.531,3.753,15.531s0.314-1.04,0.649-2.868
				c-0.023-0.936-0.062-1.871-0.122-2.806c-0.155-2.438-0.469-4.86-0.898-7.264c-0.402-2.25-0.913-4.505-1.744-6.639
				c-0.639-1.641-1.54-3.463-3.057-4.468c-0.009,0.47-0.018,0.941-0.028,1.411c-0.111,5.538-0.281,11.153-1.598,16.56
				c-0.638,2.62-1.564,5.197-2.948,7.52c-1.098,1.842-2.489,3.693-4.328,4.852c-1.308,0.825-2.827,1.182-4.359,0.927
				c-1.542-0.256-2.933-1.081-4.139-2.043c-1.448-1.155-2.68-2.565-3.802-4.033c-1.227-1.605-2.319-3.311-3.333-5.057
				c-1.502-2.586-2.822-5.271-4.069-7.987c-0.002,0.002-0.004,0.004-0.007,0.006c-0.422,0.365,1.319,5.377,1.51,6.051
				c0.568,2.006,1.197,3.994,1.887,5.961c1.267,3.615,2.772,7.013,4.506,10.414c3.571,7.007,5.93,14.672,6.54,22.529
				c0.473,6.099,1.212,14.5-1.793,20.136c0,0,18.902-15.065,17.623-62.106L237.96,70.958z"/>
		</g>
		<g>
			<g>
				<path style="fill:#F6B897;" d="M220.296,140.017c0.178-0.513,8.07-20.712,19.564-17.568c4.429,1.212,5.489,5.674,5.299,9.807
					c-0.278,6.045-2.431,12.625-5.387,17.893c-2.724,4.855-6.733,9.092-12.063,11.011c-2.958,1.065-9.467,2.974-11.285-0.931
					c-0.654-1.405-0.339-3.121,0.089-4.54C220.087,143.835,220.296,140.017,220.296,140.017z"/>
				<path style="fill:#F6B897;" d="M230.415,153.116c0,0,6.108-0.157,9.879-8.258c3.771-8.101,2.791-18.11-2.063-17.997
					c-4.854,0.113-13.309,13.42-13.309,13.42s5.562,2.45,1.35,7.621c0,0,8.558-1.344,8.466-6.431
					c-0.092-5.086-5.229-5.311-5.229-5.311s7.447-9.022,10.417-6.413C242.896,132.356,238.839,151.525,230.415,153.116z"/>
			</g>
			<g>
				<path style="fill:#F6B897;" d="M110.61,140.017c-0.178-0.513-8.07-20.712-19.564-17.568c-4.429,1.212-5.489,5.674-5.299,9.807
					c0.278,6.045,2.431,12.625,5.387,17.893c2.724,4.855,6.733,9.092,12.063,11.011c2.958,1.065,9.467,2.974,11.285-0.931
					c0.654-1.405,0.339-3.121-0.089-4.54C110.819,143.835,110.61,140.017,110.61,140.017z"/>
				<path style="fill:#F6B897;" d="M100.492,153.116c0,0-6.108-0.157-9.879-8.258c-3.771-8.101-2.791-18.11,2.063-17.997
					c4.854,0.113,13.309,13.42,13.309,13.42s-5.562,2.45-1.35,7.621c0,0-8.558-1.344-8.466-6.431
					c0.092-5.086,5.229-5.311,5.229-5.311s-7.447-9.022-10.417-6.413C88.01,132.356,92.068,151.525,100.492,153.116z"/>
			</g>
		</g>
	</g>
</g>
</svg>
