<svg width="723" height="95" viewBox="0 0 723 95" fill="none" xmlns="http://www.w3.org/2000/svg">
<path d="M7.91016 12H21.0938L44.0156 67.9687H44.8594L67.7813 12H80.9648V84H70.6289V31.8984H69.9609L48.7266 83.8945H40.1484L18.9141 31.8633H18.2461V84H7.91016V12ZM90.965 84V30H101.477V84H90.965ZM96.2736 21.668C94.4455 21.668 92.8752 21.0586 91.5627 19.8398C90.2736 18.5977 89.6291 17.1211 89.6291 15.4102C89.6291 13.6758 90.2736 12.1992 91.5627 10.9805C92.8752 9.73828 94.4455 9.11719 96.2736 9.11719C98.1018 9.11719 99.6604 9.73828 100.949 10.9805C102.262 12.1992 102.918 13.6758 102.918 15.4102C102.918 17.1211 102.262 18.5977 100.949 19.8398C99.6604 21.0586 98.1018 21.668 96.2736 21.668ZM133.414 85.0898C128.188 85.0898 123.688 83.9063 119.914 81.5391C116.164 79.1484 113.282 75.8555 111.266 71.6602C109.25 67.4648 108.243 62.6602 108.243 57.2461C108.243 51.7617 109.274 46.9219 111.336 42.7266C113.399 38.5078 116.305 35.2148 120.055 32.8477C123.805 30.4805 128.223 29.2969 133.309 29.2969C137.411 29.2969 141.067 30.0586 144.278 31.582C147.489 33.082 150.079 35.1914 152.047 37.9102C154.039 40.6289 155.223 43.8047 155.598 47.4375H145.368C144.805 44.9062 143.516 42.7266 141.5 40.8984C139.508 39.0703 136.836 38.1562 133.485 38.1562C130.555 38.1562 127.989 38.9297 125.786 40.4766C123.606 42 121.907 44.1797 120.688 47.0156C119.469 49.8281 118.86 53.1562 118.86 57C118.86 60.9375 119.457 64.3359 120.653 67.1953C121.848 70.0547 123.536 72.2695 125.715 73.8398C127.918 75.4102 130.508 76.1953 133.485 76.1953C135.477 76.1953 137.282 75.832 138.899 75.1055C140.539 74.3555 141.911 73.2891 143.012 71.9062C144.137 70.5234 144.922 68.8594 145.368 66.9141H155.598C155.223 70.4062 154.086 73.5234 152.188 76.2656C150.289 79.0078 147.746 81.1641 144.559 82.7344C141.395 84.3047 137.68 85.0898 133.414 85.0898ZM161.889 84V30H172.049V38.5781H172.612C173.596 35.6719 175.331 33.3867 177.815 31.7227C180.323 30.0352 183.159 29.1914 186.323 29.1914C186.979 29.1914 187.753 29.2148 188.643 29.2617C189.557 29.3086 190.272 29.3672 190.788 29.4375V39.4922C190.366 39.375 189.616 39.2461 188.538 39.1055C187.46 38.9414 186.381 38.8594 185.303 38.8594C182.819 38.8594 180.604 39.3867 178.659 40.4414C176.737 41.4727 175.213 42.9141 174.088 44.7656C172.963 46.5937 172.401 48.6797 172.401 51.0234V84H161.889ZM215.747 85.0898C210.684 85.0898 206.266 83.9297 202.493 81.6094C198.72 79.2891 195.79 76.043 193.704 71.8711C191.618 67.6992 190.575 62.8242 190.575 57.2461C190.575 51.6445 191.618 46.7461 193.704 42.5508C195.79 38.3555 198.72 35.0977 202.493 32.7773C206.266 30.457 210.684 29.2969 215.747 29.2969C220.809 29.2969 225.227 30.457 229.001 32.7773C232.774 35.0977 235.704 38.3555 237.79 42.5508C239.876 46.7461 240.919 51.6445 240.919 57.2461C240.919 62.8242 239.876 67.6992 237.79 71.8711C235.704 76.043 232.774 79.2891 229.001 81.6094C225.227 83.9297 220.809 85.0898 215.747 85.0898ZM215.782 76.2656C219.063 76.2656 221.782 75.3984 223.938 73.6641C226.095 71.9297 227.688 69.6211 228.72 66.7383C229.774 63.8555 230.302 60.6797 230.302 57.2109C230.302 53.7656 229.774 50.6016 228.72 47.7187C227.688 44.8125 226.095 42.4805 223.938 40.7227C221.782 38.9648 219.063 38.0859 215.782 38.0859C212.477 38.0859 209.735 38.9648 207.555 40.7227C205.399 42.4805 203.794 44.8125 202.739 47.7187C201.708 50.6016 201.192 53.7656 201.192 57.2109C201.192 60.6797 201.708 63.8555 202.739 66.7383C203.794 69.6211 205.399 71.9297 207.555 73.6641C209.735 75.3984 212.477 76.2656 215.782 76.2656ZM267.917 85.0547C263.558 85.0547 259.667 83.9414 256.245 81.7148C252.847 79.4648 250.175 76.2656 248.229 72.1172C246.308 67.9453 245.347 62.9414 245.347 57.1055C245.347 51.2695 246.319 46.2773 248.265 42.1289C250.233 37.9805 252.929 34.8047 256.351 32.6016C259.772 30.3984 263.651 29.2969 267.987 29.2969C271.339 29.2969 274.034 29.8594 276.073 30.9844C278.136 32.0859 279.729 33.375 280.854 34.8516C282.003 36.3281 282.894 37.6289 283.526 38.7539H284.159V12H294.671V84H284.405V75.5977H283.526C282.894 76.7461 281.979 78.0586 280.784 79.5352C279.612 81.0117 277.995 82.3008 275.933 83.4023C273.87 84.5039 271.198 85.0547 267.917 85.0547ZM270.237 76.0898C273.261 76.0898 275.815 75.293 277.901 73.6992C280.011 72.082 281.604 69.8437 282.683 66.9844C283.784 64.125 284.335 60.7969 284.335 57C284.335 53.25 283.796 49.9687 282.718 47.1562C281.64 44.3437 280.058 42.1523 277.972 40.582C275.886 39.0117 273.308 38.2266 270.237 38.2266C267.073 38.2266 264.437 39.0469 262.327 40.6875C260.218 42.3281 258.624 44.5664 257.546 47.4023C256.491 50.2383 255.964 53.4375 255.964 57C255.964 60.6094 256.503 63.8555 257.581 66.7383C258.659 69.6211 260.253 71.9062 262.362 73.5937C264.495 75.2578 267.12 76.0898 270.237 76.0898ZM327.47 85.0898C322.407 85.0898 317.989 83.9297 314.216 81.6094C310.443 79.2891 307.513 76.043 305.427 71.8711C303.341 67.6992 302.298 62.8242 302.298 57.2461C302.298 51.6445 303.341 46.7461 305.427 42.5508C307.513 38.3555 310.443 35.0977 314.216 32.7773C317.989 30.457 322.407 29.2969 327.47 29.2969C332.532 29.2969 336.95 30.457 340.724 32.7773C344.497 35.0977 347.427 38.3555 349.513 42.5508C351.599 46.7461 352.642 51.6445 352.642 57.2461C352.642 62.8242 351.599 67.6992 349.513 71.8711C347.427 76.043 344.497 79.2891 340.724 81.6094C336.95 83.9297 332.532 85.0898 327.47 85.0898ZM327.505 76.2656C330.786 76.2656 333.505 75.3984 335.661 73.6641C337.818 71.9297 339.411 69.6211 340.443 66.7383C341.497 63.8555 342.025 60.6797 342.025 57.2109C342.025 53.7656 341.497 50.6016 340.443 47.7187C339.411 44.8125 337.818 42.4805 335.661 40.7227C333.505 38.9648 330.786 38.0859 327.505 38.0859C324.2 38.0859 321.458 38.9648 319.279 40.7227C317.122 42.4805 315.517 44.8125 314.462 47.7187C313.431 50.6016 312.915 53.7656 312.915 57.2109C312.915 60.6797 313.431 63.8555 314.462 66.7383C315.517 69.6211 317.122 71.9297 319.279 73.6641C321.458 75.3984 324.2 76.2656 327.505 76.2656ZM399.89 43.1836L390.363 44.8711C389.964 43.6523 389.331 42.4922 388.464 41.3906C387.621 40.2891 386.472 39.3867 385.019 38.6836C383.566 37.9805 381.749 37.6289 379.57 37.6289C376.593 37.6289 374.109 38.2969 372.117 39.6328C370.124 40.9453 369.128 42.6445 369.128 44.7305C369.128 46.5352 369.796 47.9883 371.132 49.0898C372.468 50.1914 374.624 51.0937 377.601 51.7969L386.179 53.7656C391.148 54.9141 394.851 56.6836 397.288 59.0742C399.726 61.4648 400.945 64.5703 400.945 68.3906C400.945 71.625 400.007 74.5078 398.132 77.0391C396.281 79.5469 393.691 81.5156 390.363 82.9453C387.058 84.375 383.226 85.0898 378.867 85.0898C372.82 85.0898 367.886 83.8008 364.066 81.2227C360.246 78.6211 357.902 74.9297 357.035 70.1484L367.195 68.6016C367.828 71.25 369.128 73.2539 371.097 74.6133C373.066 75.9492 375.632 76.6172 378.796 76.6172C382.242 76.6172 384.996 75.9023 387.058 74.4727C389.121 73.0195 390.152 71.25 390.152 69.1641C390.152 67.4766 389.519 66.0586 388.253 64.9102C387.011 63.7617 385.101 62.8945 382.523 62.3086L373.382 60.3047C368.343 59.1563 364.617 57.3281 362.203 54.8203C359.812 52.3125 358.617 49.1367 358.617 45.293C358.617 42.1055 359.507 39.3164 361.288 36.9258C363.07 34.5352 365.531 32.6719 368.671 31.3359C371.812 29.9766 375.41 29.2969 379.464 29.2969C385.3 29.2969 389.894 30.5625 393.246 33.0937C396.597 35.6016 398.812 38.9648 399.89 43.1836ZM430.826 85.0898C425.505 85.0898 420.923 83.9531 417.08 81.6797C413.259 79.3828 410.306 76.1602 408.22 72.0117C406.158 67.8398 405.127 62.9531 405.127 57.3516C405.127 51.8203 406.158 46.9453 408.22 42.7266C410.306 38.5078 413.212 35.2148 416.939 32.8477C420.689 30.4805 425.072 29.2969 430.087 29.2969C433.134 29.2969 436.087 29.8008 438.947 30.8086C441.806 31.8164 444.373 33.3984 446.646 35.5547C448.92 37.7109 450.712 40.5117 452.025 43.957C453.337 47.3789 453.994 51.5391 453.994 56.4375V60.1641H411.068V52.2891H443.693C443.693 49.5234 443.13 47.0742 442.005 44.9414C440.88 42.7852 439.298 41.0859 437.259 39.8437C435.244 38.6016 432.877 37.9805 430.158 37.9805C427.205 37.9805 424.627 38.707 422.423 40.1602C420.244 41.5898 418.556 43.4648 417.361 45.7852C416.189 48.082 415.603 50.5781 415.603 53.2734V59.4258C415.603 63.0352 416.236 66.1055 417.502 68.6367C418.791 71.168 420.584 73.1016 422.88 74.4375C425.177 75.75 427.861 76.4062 430.931 76.4062C432.923 76.4062 434.74 76.125 436.38 75.5625C438.021 74.9766 439.439 74.1094 440.634 72.9609C441.83 71.8125 442.744 70.3945 443.377 68.707L453.326 70.5C452.529 73.4297 451.099 75.9961 449.037 78.1992C446.998 80.3789 444.431 82.0781 441.337 83.2969C438.267 84.4922 434.763 85.0898 430.826 85.0898ZM461.551 84V12H487.215C492.816 12 497.457 13.0195 501.137 15.0586C504.816 17.0977 507.57 19.8867 509.398 23.4258C511.226 26.9414 512.14 30.9023 512.14 35.3086C512.14 39.7383 511.215 43.7227 509.363 47.2617C507.535 50.7773 504.769 53.5664 501.066 55.6289C497.387 57.668 492.758 58.6875 487.18 58.6875H469.531V49.4766H486.195C489.734 49.4766 492.605 48.8672 494.808 47.6484C497.012 46.4062 498.629 44.7187 499.66 42.5859C500.691 40.4531 501.207 38.0273 501.207 35.3086C501.207 32.5898 500.691 30.1758 499.66 28.0664C498.629 25.957 497 24.3047 494.773 23.1094C492.57 21.9141 489.664 21.3164 486.055 21.3164H472.414V84H461.551ZM529.594 12V84H519.082V12H529.594ZM572.992 61.6055V30H583.539V84H573.203V74.6484H572.641C571.399 77.5313 569.406 79.9336 566.664 81.8555C563.945 83.7539 560.559 84.7031 556.504 84.7031C553.035 84.7031 549.965 83.9414 547.293 82.418C544.645 80.8711 542.559 78.5859 541.035 75.5625C539.535 72.5391 538.785 68.8008 538.785 64.3477V30H549.297V63.082C549.297 66.7617 550.317 69.6914 552.356 71.8711C554.395 74.0508 557.043 75.1406 560.301 75.1406C562.27 75.1406 564.227 74.6484 566.172 73.6641C568.141 72.6797 569.77 71.1914 571.059 69.1992C572.371 67.207 573.016 64.6758 572.992 61.6055ZM633.178 43.1836L623.651 44.8711C623.252 43.6523 622.62 42.4922 621.752 41.3906C620.909 40.2891 619.76 39.3867 618.307 38.6836C616.854 37.9805 615.037 37.6289 612.858 37.6289C609.881 37.6289 607.397 38.2969 605.405 39.6328C603.412 40.9453 602.416 42.6445 602.416 44.7305C602.416 46.5352 603.084 47.9883 604.42 49.0898C605.756 50.1914 607.912 51.0937 610.889 51.7969L619.467 53.7656C624.436 54.9141 628.139 56.6836 630.577 59.0742C633.014 61.4648 634.233 64.5703 634.233 68.3906C634.233 71.625 633.295 74.5078 631.42 77.0391C629.569 79.5469 626.979 81.5156 623.651 82.9453C620.346 84.375 616.514 85.0898 612.155 85.0898C606.108 85.0898 601.174 83.8008 597.354 81.2227C593.534 78.6211 591.19 74.9297 590.323 70.1484L600.483 68.6016C601.116 71.25 602.416 73.2539 604.385 74.6133C606.354 75.9492 608.92 76.6172 612.084 76.6172C615.53 76.6172 618.284 75.9023 620.346 74.4727C622.409 73.0195 623.44 71.25 623.44 69.1641C623.44 67.4766 622.807 66.0586 621.541 64.9102C620.299 63.7617 618.389 62.8945 615.811 62.3086L606.67 60.3047C601.631 59.1563 597.905 57.3281 595.491 54.8203C593.1 52.3125 591.905 49.1367 591.905 45.293C591.905 42.1055 592.795 39.3164 594.577 36.9258C596.358 34.5352 598.819 32.6719 601.959 31.3359C605.1 29.9766 608.698 29.2969 612.752 29.2969C618.588 29.2969 623.182 30.5625 626.534 33.0937C629.885 35.6016 632.1 38.9648 633.178 43.1836Z" fill="url(#paint0_linear_232_126)"/>
<path d="M683.254 6.5C684.85 6.5071 686.51 6.66303 687.574 6.98438C691.726 8.23798 695.515 12.0954 696.813 16.3682C697.142 17.4482 697.312 18.2551 697.4 20.6592C697.488 23.0454 697.498 27.0446 697.5 34.5176C697.502 42.1183 697.496 46.1088 697.407 48.4453C697.317 50.8043 697.14 51.5241 696.792 52.5732C695.312 57.0395 692.133 60.2861 687.762 61.7832C686.739 62.1333 686.02 62.3111 683.687 62.4023C681.375 62.4927 677.433 62.5 669.952 62.5C662.616 62.5 658.664 62.4901 656.305 62.4023C653.929 62.314 653.125 62.1455 652.095 61.8184C650.941 61.4519 649.516 60.842 648.922 60.4395C646.891 59.0644 644.651 56.4754 643.593 54.2773C643.096 53.2462 642.805 52.5986 642.655 51.7373C642.509 50.8995 642.499 49.8697 642.5 48.0742C642.501 46.2737 642.513 45.244 642.663 44.4004C642.817 43.5347 643.114 42.8767 643.622 41.8174C645.072 38.7973 647.334 36.4761 650.27 35.0059L652.542 33.8682L652.642 33.8184L652.754 33.8154L660.265 33.6426C662.326 33.5949 664.265 33.5195 665.728 33.4365C666.459 33.395 667.068 33.3517 667.512 33.3096C667.734 33.2884 667.91 33.268 668.036 33.249C668.099 33.2395 668.145 33.2313 668.175 33.2246C668.178 33.224 668.18 33.2222 668.183 33.2217C668.348 33.1393 668.465 33.0402 668.566 32.8584C668.683 32.6485 668.79 32.31 668.872 31.7275C669.037 30.5584 669.081 28.6014 669.081 25.2061C669.081 19.6948 669.177 18.2404 669.722 16.4609C671.156 11.7773 674.431 8.43516 679.051 6.9502C680.037 6.63312 681.662 6.49295 683.254 6.5ZM685.996 10.5664C680.961 9.20395 676.114 11.5045 673.693 16.4648C673.468 16.9261 673.317 17.2369 673.203 17.5879C673.091 17.9329 673.01 18.3328 672.95 18.9561C672.828 20.223 672.801 22.3243 672.748 26.5928L672.643 35.1094L672.64 35.3105L672.499 35.4541L671.688 36.2783L670.876 37.1035L670.731 37.25L670.525 37.2529L662.146 37.3604C657.323 37.4222 654.874 37.4834 653.245 37.8701C651.687 38.2401 650.893 38.9033 649.391 40.332C643.863 45.5872 645.35 54.4775 652.345 57.8008L654.199 58.6816H685.614L687.346 57.8564C689.822 56.6759 691.507 55.0042 692.694 52.5527L693.708 50.46V34.6543C693.708 25.5784 693.71 21.1171 693.378 18.5312C693.214 17.2544 692.973 16.4761 692.631 15.8408C692.37 15.3557 692.042 14.9378 691.604 14.4307L691.128 13.8877C689.466 12.0063 688.114 11.1394 685.996 10.5664Z" fill="url(#paint1_linear_232_126)" stroke="#0750A1"/>
<path d="M682.492 88.5C680.925 88.4929 679.293 88.3377 678.246 88.0156C674.165 86.7603 670.446 82.8998 669.173 78.6299C668.851 77.5506 668.685 76.7435 668.598 74.3398C668.511 71.9538 668.502 67.955 668.5 60.4824C668.498 52.8812 668.504 48.891 668.592 46.5547C668.68 44.1964 668.853 43.4771 669.194 42.4287C670.646 37.9652 673.766 34.7165 678.062 33.2178C679.067 32.867 679.775 32.6889 682.066 32.5977C684.336 32.5073 688.205 32.5 695.547 32.5C702.747 32.5 706.626 32.5099 708.942 32.5977C711.275 32.6861 712.066 32.8548 713.079 33.1826C714.212 33.5493 715.611 34.1601 716.196 34.5635C718.191 35.9395 720.389 38.5292 721.428 40.7266C721.915 41.7577 722.2 42.4037 722.348 43.2637C722.491 44.1006 722.501 45.1298 722.5 46.9258C722.499 48.7266 722.487 49.7549 722.34 50.5977C722.189 51.4625 721.899 52.1199 721.399 53.1797C719.977 56.1988 717.756 58.5206 714.872 59.9922L712.643 61.1299L712.541 61.1816L712.427 61.1846L705.055 61.3574C703.032 61.4051 701.129 61.4805 699.694 61.5635C698.976 61.605 698.379 61.6483 697.944 61.6904C697.726 61.7115 697.554 61.7321 697.431 61.751C697.369 61.7605 697.324 61.7688 697.295 61.7754C697.292 61.776 697.29 61.7778 697.288 61.7783C697.129 61.8593 697.016 61.9566 696.917 62.1377C696.802 62.3483 696.697 62.688 696.616 63.2715C696.454 64.4414 696.411 66.3989 696.411 69.7939C696.411 75.3051 696.318 76.7581 695.783 78.5361C694.377 83.2172 691.162 86.562 686.622 88.0488C685.651 88.3667 684.055 88.507 682.492 88.5ZM679.805 84.4336C684.735 85.793 689.489 83.5009 691.865 78.5381C692.086 78.0769 692.234 77.7656 692.346 77.4141C692.456 77.0685 692.537 76.6685 692.596 76.0449C692.715 74.7774 692.742 72.6755 692.794 68.4072L692.897 59.8906L692.899 59.6924L693.037 59.5498L694.631 57.8994L694.775 57.75L694.983 57.7471L703.207 57.6396C707.943 57.5778 710.344 57.5161 711.94 57.1299C713.465 56.7609 714.242 56.1002 715.718 54.6709C721.146 49.4123 719.68 40.5187 712.82 37.1982L711.002 36.3184L680.178 36.3184L678.483 37.1416L678.037 37.3682C675.851 38.5322 674.328 40.1441 673.235 42.4434L672.24 44.5361L672.24 60.3457C672.24 69.4212 672.239 73.8832 672.564 76.4697C672.725 77.7471 672.962 78.5263 673.298 79.1621C673.64 79.8091 674.098 80.3363 674.773 81.1152C676.405 82.9964 677.73 83.8615 679.805 84.4336Z" fill="url(#paint2_linear_232_126)" stroke="#0750A1"/>
<path d="M682.429 41.5H683.571C683.991 41.5 684.214 41.7846 684.214 42V47H689.857C690.277 47.0001 690.5 47.2846 690.5 47.5V48.5C690.5 48.7154 690.277 48.9999 689.857 49H684.214V54C684.214 54.2154 683.991 54.5 683.571 54.5H682.429C682.009 54.5 681.786 54.2154 681.786 54V49H676.143C675.723 48.9999 675.5 48.7154 675.5 48.5V47.5C675.5 47.2846 675.723 47.0001 676.143 47H681.786V42C681.786 41.7846 682.009 41.5 682.429 41.5Z" fill="#0750A1" stroke="#0750A1"/>
<defs>
<linearGradient id="paint0_linear_232_126" x1="0" y1="47.5" x2="639" y2="47.5" gradientUnits="userSpaceOnUse">
<stop offset="0.312476" stop-color="#047051"/>
<stop offset="0.420327" stop-color="#F2CE00"/>
<stop offset="0.67001" stop-color="#F2CE00"/>
<stop offset="0.751268" stop-color="#AE4141"/>
</linearGradient>
<linearGradient id="paint1_linear_232_126" x1="670" y1="7" x2="670" y2="62" gradientUnits="userSpaceOnUse">
<stop stop-color="#0750A1"/>
<stop offset="1" stop-color="#0750A1"/>
</linearGradient>
<linearGradient id="paint2_linear_232_126" x1="695.5" y1="88" x2="695.5" y2="33" gradientUnits="userSpaceOnUse">
<stop stop-color="#0750A1"/>
<stop offset="1" stop-color="#0750A1"/>
</linearGradient>
</defs>
</svg>
