<svg width="723" height="95" viewBox="0 0 723 95" fill="none" xmlns="http://www.w3.org/2000/svg">
<path d="M4.22727 21.25V12.1818H58.2614V21.25H36.4773V82H25.9773V21.25H4.22727ZM74.7767 50.9091V82H64.5835V12.1818H74.6403V38.1591H75.2881C76.5153 35.3409 78.3903 33.1023 80.9131 31.4432C83.4358 29.7841 86.7313 28.9545 90.7994 28.9545C94.3903 28.9545 97.5267 29.6932 100.209 31.1705C102.913 32.6477 105.004 34.8523 106.481 37.7841C107.981 40.6932 108.731 44.3295 108.731 48.6932V82H98.5381V49.9205C98.5381 46.0795 97.5494 43.1023 95.5722 40.9886C93.5949 38.8523 90.8449 37.7841 87.3222 37.7841C84.9131 37.7841 82.754 38.2955 80.8449 39.3182C78.9585 40.3409 77.4699 41.8409 76.379 43.8182C75.3108 45.7727 74.7767 48.1364 74.7767 50.9091ZM117.534 82V29.6364H127.386V37.9545H127.931C128.886 35.1364 130.568 32.9205 132.977 31.3068C135.409 29.6705 138.159 28.8523 141.227 28.8523C141.863 28.8523 142.613 28.875 143.477 28.9205C144.363 28.9659 145.056 29.0227 145.556 29.0909V38.8409C145.147 38.7273 144.42 38.6023 143.374 38.4659C142.329 38.3068 141.284 38.2273 140.238 38.2273C137.829 38.2273 135.681 38.7386 133.795 39.7614C131.931 40.7614 130.454 42.1591 129.363 43.9545C128.272 45.7273 127.727 47.75 127.727 50.0227V82H117.534ZM149.577 82V29.6364H159.77V82H149.577ZM154.725 21.5568C152.952 21.5568 151.43 20.9659 150.157 19.7841C148.907 18.5795 148.282 17.1477 148.282 15.4886C148.282 13.8068 148.907 12.375 150.157 11.1932C151.43 9.98863 152.952 9.38636 154.725 9.38636C156.498 9.38636 158.009 9.98863 159.259 11.1932C160.532 12.375 161.168 13.8068 161.168 15.4886C161.168 17.1477 160.532 18.5795 159.259 19.7841C158.009 20.9659 156.498 21.5568 154.725 21.5568ZM213.479 29.6364L194.49 82H183.581L164.559 29.6364H175.502L188.763 69.9318H189.309L202.536 29.6364H213.479ZM239.045 83.0568C233.886 83.0568 229.443 81.9545 225.716 79.75C222.011 77.5227 219.148 74.3977 217.125 70.375C215.125 66.3295 214.125 61.5909 214.125 56.1591C214.125 50.7955 215.125 46.0682 217.125 41.9773C219.148 37.8864 221.966 34.6932 225.58 32.3977C229.216 30.1023 233.466 28.9545 238.33 28.9545C241.284 28.9545 244.148 29.4432 246.92 30.4205C249.693 31.3977 252.182 32.9318 254.386 35.0227C256.591 37.1136 258.33 39.8295 259.602 43.1705C260.875 46.4886 261.511 50.5227 261.511 55.2727V58.8864H219.886V51.25H251.523C251.523 48.5682 250.977 46.1932 249.886 44.125C248.795 42.0341 247.261 40.3864 245.284 39.1818C243.33 37.9773 241.034 37.375 238.398 37.375C235.534 37.375 233.034 38.0795 230.898 39.4886C228.784 40.875 227.148 42.6932 225.989 44.9432C224.852 47.1705 224.284 49.5909 224.284 52.2045V58.1705C224.284 61.6705 224.898 64.6477 226.125 67.1023C227.375 69.5568 229.114 71.4318 231.341 72.7273C233.568 74 236.17 74.6364 239.148 74.6364C241.08 74.6364 242.841 74.3636 244.432 73.8182C246.023 73.25 247.398 72.4091 248.557 71.2955C249.716 70.1818 250.602 68.8068 251.216 67.1705L260.864 68.9091C260.091 71.75 258.705 74.2386 256.705 76.375C254.727 78.4886 252.239 80.1364 249.239 81.3182C246.261 82.4773 242.864 83.0568 239.045 83.0568ZM268.021 82V29.6364H277.805V38.1591H278.453C279.544 35.2727 281.328 33.0227 283.805 31.4091C286.282 29.7727 289.248 28.9545 292.703 28.9545C296.203 28.9545 299.135 29.7727 301.498 31.4091C303.885 33.0455 305.646 35.2955 306.782 38.1591H307.328C308.578 35.3636 310.566 33.1364 313.294 31.4773C316.021 29.7955 319.271 28.9545 323.044 28.9545C327.794 28.9545 331.669 30.4432 334.669 33.4205C337.691 36.3977 339.203 40.8864 339.203 46.8864V82H329.01V47.8409C329.01 44.2955 328.044 41.7273 326.112 40.1364C324.18 38.5455 321.873 37.75 319.191 37.75C315.873 37.75 313.294 38.7727 311.453 40.8182C309.612 42.8409 308.691 45.4432 308.691 48.625V82H298.532V47.1932C298.532 44.3523 297.646 42.0682 295.873 40.3409C294.101 38.6136 291.794 37.75 288.953 37.75C287.021 37.75 285.237 38.2614 283.601 39.2841C281.987 40.2841 280.68 41.6818 279.68 43.4773C278.703 45.2727 278.214 47.3523 278.214 49.7159V82H268.021ZM370.633 83.0568C365.474 83.0568 361.031 81.9545 357.303 79.75C353.599 77.5227 350.735 74.3977 348.712 70.375C346.712 66.3295 345.712 61.5909 345.712 56.1591C345.712 50.7955 346.712 46.0682 348.712 41.9773C350.735 37.8864 353.553 34.6932 357.167 32.3977C360.803 30.1023 365.053 28.9545 369.917 28.9545C372.872 28.9545 375.735 29.4432 378.508 30.4205C381.281 31.3977 383.769 32.9318 385.974 35.0227C388.178 37.1136 389.917 39.8295 391.19 43.1705C392.462 46.4886 393.099 50.5227 393.099 55.2727V58.8864H351.474V51.25H383.11C383.11 48.5682 382.565 46.1932 381.474 44.125C380.383 42.0341 378.849 40.3864 376.872 39.1818C374.917 37.9773 372.622 37.375 369.985 37.375C367.122 37.375 364.622 38.0795 362.485 39.4886C360.372 40.875 358.735 42.6932 357.576 44.9432C356.44 47.1705 355.872 49.5909 355.872 52.2045V58.1705C355.872 61.6705 356.485 64.6477 357.712 67.1023C358.962 69.5568 360.701 71.4318 362.928 72.7273C365.156 74 367.758 74.6364 370.735 74.6364C372.667 74.6364 374.428 74.3636 376.019 73.8182C377.61 73.25 378.985 72.4091 380.144 71.2955C381.303 70.1818 382.19 68.8068 382.803 67.1705L392.451 68.9091C391.678 71.75 390.292 74.2386 388.292 76.375C386.315 78.4886 383.826 80.1364 380.826 81.3182C377.849 82.4773 374.451 83.0568 370.633 83.0568ZM419.211 83.0227C414.984 83.0227 411.211 81.9432 407.893 79.7841C404.597 77.6023 402.006 74.5 400.12 70.4773C398.256 66.4318 397.324 61.5795 397.324 55.9205C397.324 50.2614 398.268 45.4205 400.154 41.3977C402.063 37.375 404.677 34.2955 407.995 32.1591C411.313 30.0227 415.074 28.9545 419.279 28.9545C422.529 28.9545 425.143 29.5 427.12 30.5909C429.12 31.6591 430.665 32.9091 431.756 34.3409C432.87 35.7727 433.734 37.0341 434.347 38.125H434.961V12.1818H445.154V82H435.199V73.8523H434.347C433.734 74.9659 432.847 76.2386 431.688 77.6705C430.552 79.1023 428.984 80.3523 426.984 81.4205C424.984 82.4886 422.393 83.0227 419.211 83.0227ZM421.461 74.3295C424.393 74.3295 426.87 73.5568 428.893 72.0114C430.938 70.4432 432.484 68.2727 433.529 65.5C434.597 62.7273 435.131 59.5 435.131 55.8182C435.131 52.1818 434.609 49 433.563 46.2727C432.518 43.5455 430.984 41.4205 428.961 39.8977C426.938 38.375 424.438 37.6136 421.461 37.6136C418.393 37.6136 415.836 38.4091 413.79 40C411.745 41.5909 410.199 43.7614 409.154 46.5114C408.131 49.2614 407.62 52.3636 407.62 55.8182C407.62 59.3182 408.143 62.4659 409.188 65.2614C410.234 68.0568 411.779 70.2727 413.824 71.9091C415.893 73.5227 418.438 74.3295 421.461 74.3295ZM455.72 82V12.1818H480.607C486.039 12.1818 490.539 13.1705 494.107 15.1477C497.675 17.125 500.345 19.8295 502.118 23.2614C503.891 26.6705 504.777 30.5114 504.777 34.7841C504.777 39.0795 503.88 42.9432 502.084 46.375C500.311 49.7841 497.63 52.4886 494.039 54.4886C490.47 56.4659 485.982 57.4545 480.573 57.4545H463.459V48.5227H479.618C483.05 48.5227 485.834 47.9318 487.97 46.75C490.107 45.5455 491.675 43.9091 492.675 41.8409C493.675 39.7727 494.175 37.4205 494.175 34.7841C494.175 32.1477 493.675 29.8068 492.675 27.7614C491.675 25.7159 490.095 24.1136 487.936 22.9545C485.8 21.7955 482.982 21.2159 479.482 21.2159H466.255V82H455.72ZM521.702 12.1818V82H511.509V12.1818H521.702ZM563.785 60.2841V29.6364H574.013V82H563.99V72.9318H563.444C562.24 75.7273 560.308 78.0568 557.649 79.9205C555.013 81.7614 551.728 82.6818 547.797 82.6818C544.433 82.6818 541.456 81.9432 538.865 80.4659C536.297 78.9659 534.274 76.75 532.797 73.8182C531.342 70.8864 530.615 67.2614 530.615 62.9432V29.6364H540.808V61.7159C540.808 65.2841 541.797 68.125 543.774 70.2386C545.751 72.3523 548.319 73.4091 551.478 73.4091C553.388 73.4091 555.285 72.9318 557.172 71.9773C559.081 71.0227 560.66 69.5795 561.91 67.6477C563.183 65.7159 563.808 63.2614 563.785 60.2841ZM622.147 42.4205L612.909 44.0568C612.522 42.875 611.909 41.75 611.068 40.6818C610.249 39.6136 609.136 38.7386 607.727 38.0568C606.318 37.375 604.556 37.0341 602.443 37.0341C599.556 37.0341 597.147 37.6818 595.215 38.9773C593.284 40.25 592.318 41.8977 592.318 43.9205C592.318 45.6705 592.965 47.0795 594.261 48.1477C595.556 49.2159 597.647 50.0909 600.534 50.7727L608.852 52.6818C613.67 53.7955 617.261 55.5114 619.624 57.8295C621.988 60.1477 623.17 63.1591 623.17 66.8636C623.17 70 622.261 72.7955 620.443 75.25C618.647 77.6818 616.136 79.5909 612.909 80.9773C609.704 82.3636 605.988 83.0568 601.761 83.0568C595.897 83.0568 591.113 81.8068 587.409 79.3068C583.704 76.7841 581.431 73.2045 580.59 68.5682L590.443 67.0682C591.056 69.6364 592.318 71.5795 594.227 72.8977C596.136 74.1932 598.624 74.8409 601.693 74.8409C605.034 74.8409 607.704 74.1477 609.704 72.7614C611.704 71.3523 612.704 69.6364 612.704 67.6136C612.704 65.9773 612.09 64.6023 610.863 63.4886C609.659 62.375 607.806 61.5341 605.306 60.9659L596.443 59.0227C591.556 57.9091 587.943 56.1364 585.602 53.7045C583.284 51.2727 582.124 48.1932 582.124 44.4659C582.124 41.375 582.988 38.6705 584.715 36.3523C586.443 34.0341 588.829 32.2273 591.874 30.9318C594.92 29.6136 598.409 28.9545 602.34 28.9545C607.999 28.9545 612.454 30.1818 615.704 32.6364C618.954 35.0682 621.102 38.3295 622.147 42.4205Z" fill="url(#paint0_linear_232_126)"/>
<path d="M683.254 6.5C684.85 6.5071 686.51 6.66303 687.574 6.98438C691.726 8.23798 695.515 12.0954 696.813 16.3682C697.142 17.4482 697.312 18.2551 697.4 20.6592C697.488 23.0454 697.498 27.0446 697.5 34.5176C697.502 42.1183 697.496 46.1088 697.407 48.4453C697.317 50.8043 697.14 51.5241 696.792 52.5732C695.312 57.0395 692.133 60.2862 687.762 61.7832C686.739 62.1333 686.02 62.3111 683.687 62.4023C681.375 62.4927 677.433 62.5 669.952 62.5C662.616 62.5 658.664 62.4901 656.305 62.4023C653.929 62.314 653.125 62.1455 652.095 61.8184C650.941 61.4519 649.516 60.842 648.922 60.4395C646.891 59.0644 644.651 56.4754 643.593 54.2773C643.096 53.2462 642.805 52.5986 642.655 51.7373C642.509 50.8995 642.499 49.8697 642.5 48.0742C642.501 46.2737 642.513 45.244 642.663 44.4004C642.817 43.5347 643.114 42.8767 643.622 41.8174C645.072 38.7973 647.334 36.4761 650.27 35.0059L652.542 33.8682L652.642 33.8184L652.754 33.8154L660.265 33.6426C662.326 33.5949 664.265 33.5195 665.728 33.4365C666.459 33.395 667.068 33.3517 667.512 33.3096C667.734 33.2884 667.91 33.268 668.036 33.249C668.099 33.2395 668.145 33.2313 668.175 33.2246C668.178 33.224 668.18 33.2222 668.183 33.2217C668.348 33.1393 668.465 33.0402 668.566 32.8584C668.683 32.6485 668.79 32.31 668.872 31.7275C669.037 30.5584 669.081 28.6014 669.081 25.2061C669.081 19.6948 669.177 18.2404 669.722 16.4609C671.156 11.7773 674.431 8.43516 679.051 6.9502C680.037 6.63312 681.662 6.49295 683.254 6.5ZM685.996 10.5664C680.961 9.20395 676.114 11.5045 673.693 16.4648C673.468 16.9261 673.317 17.2369 673.203 17.5879C673.091 17.9329 673.01 18.3328 672.95 18.9561C672.828 20.223 672.801 22.3243 672.748 26.5928L672.643 35.1094L672.64 35.3105L672.499 35.4541L671.688 36.2783L670.876 37.1035L670.731 37.25L670.525 37.2529L662.146 37.3604C657.323 37.4222 654.874 37.4834 653.245 37.8701C651.687 38.2401 650.893 38.9033 649.391 40.332C643.863 45.5872 645.35 54.4775 652.345 57.8008L654.199 58.6816H685.614L687.346 57.8564C689.822 56.6759 691.507 55.0042 692.694 52.5527L693.708 50.46V34.6543C693.708 25.5784 693.71 21.1171 693.378 18.5312C693.214 17.2544 692.973 16.4761 692.631 15.8408C692.37 15.3557 692.042 14.9378 691.604 14.4307L691.128 13.8877C689.466 12.0063 688.114 11.1394 685.996 10.5664Z" fill="url(#paint1_linear_232_126)" stroke="#0750A1"/>
<path d="M682.492 88.5C680.925 88.4929 679.293 88.3377 678.246 88.0156C674.165 86.7603 670.447 82.8998 669.173 78.6299C668.851 77.5506 668.685 76.7435 668.598 74.3398C668.511 71.9538 668.502 67.955 668.5 60.4824C668.498 52.8812 668.504 48.891 668.592 46.5547C668.68 44.1964 668.853 43.4771 669.194 42.4287C670.646 37.9652 673.766 34.7165 678.062 33.2178C679.067 32.867 679.775 32.6889 682.066 32.5977C684.336 32.5073 688.205 32.5 695.547 32.5C702.747 32.5 706.626 32.5099 708.942 32.5977C711.275 32.6861 712.066 32.8548 713.079 33.1826C714.212 33.5493 715.611 34.1601 716.196 34.5635C718.191 35.9395 720.389 38.5292 721.428 40.7266C721.915 41.7577 722.2 42.4037 722.348 43.2637C722.491 44.1006 722.501 45.1298 722.5 46.9258C722.499 48.7266 722.487 49.7549 722.34 50.5977C722.189 51.4625 721.899 52.1199 721.399 53.1797C719.977 56.1988 717.756 58.5206 714.872 59.9922L712.643 61.1299L712.541 61.1816L712.427 61.1846L705.055 61.3574C703.032 61.4051 701.129 61.4805 699.694 61.5635C698.976 61.605 698.379 61.6483 697.944 61.6904C697.726 61.7115 697.554 61.7321 697.431 61.751C697.369 61.7605 697.324 61.7688 697.295 61.7754C697.292 61.776 697.29 61.7778 697.288 61.7783C697.129 61.8593 697.016 61.9566 696.917 62.1377C696.802 62.3483 696.697 62.688 696.616 63.2715C696.454 64.4414 696.411 66.3989 696.411 69.7939C696.411 75.3051 696.318 76.7581 695.783 78.5361C694.377 83.2172 691.162 86.562 686.622 88.0488C685.651 88.3667 684.055 88.507 682.492 88.5ZM679.805 84.4336C684.735 85.793 689.489 83.5009 691.865 78.5381C692.086 78.0769 692.234 77.7656 692.346 77.4141C692.456 77.0685 692.537 76.6685 692.596 76.0449C692.715 74.7774 692.742 72.6755 692.794 68.4072L692.897 59.8906L692.899 59.6924L693.037 59.5498L694.631 57.8994L694.775 57.75L694.983 57.7471L703.207 57.6396C707.943 57.5778 710.344 57.5161 711.94 57.1299C713.465 56.7609 714.242 56.1001 715.718 54.6709C721.146 49.4123 719.68 40.5187 712.82 37.1982L711.002 36.3184L680.178 36.3184L678.483 37.1416L678.037 37.3682C675.851 38.5322 674.328 40.1441 673.235 42.4434L672.24 44.5361L672.24 60.3457C672.24 69.4212 672.239 73.8832 672.564 76.4697C672.725 77.7471 672.962 78.5263 673.298 79.1621C673.64 79.8091 674.098 80.3363 674.773 81.1152C676.405 82.9964 677.73 83.8615 679.805 84.4336Z" fill="url(#paint2_linear_232_126)" stroke="#0750A1"/>
<path d="M682.429 41.5H683.571C683.991 41.5 684.214 41.7846 684.214 42V47H689.857C690.277 47.0001 690.5 47.2846 690.5 47.5V48.5C690.5 48.7154 690.277 48.9999 689.857 49H684.214V54C684.214 54.2154 683.991 54.5 683.571 54.5H682.429C682.009 54.5 681.786 54.2154 681.786 54V49H676.143C675.723 48.9999 675.5 48.7154 675.5 48.5V47.5C675.5 47.2846 675.723 47.0001 676.143 47H681.786V42C681.786 41.7846 682.009 41.5 682.429 41.5Z" fill="#0750A1" stroke="#0750A1"/>
<defs>
<linearGradient id="paint0_linear_232_126" x1="0" y1="47.5" x2="639" y2="47.5" gradientUnits="userSpaceOnUse">
<stop offset="0.312476" stop-color="#047051"/>
<stop offset="0.420327" stop-color="#F2CE00"/>
<stop offset="0.67001" stop-color="#F2CE00"/>
<stop offset="0.751268" stop-color="#AE4141"/>
</linearGradient>
<linearGradient id="paint1_linear_232_126" x1="670" y1="7" x2="670" y2="62" gradientUnits="userSpaceOnUse">
<stop stop-color="#0750A1"/>
<stop offset="1" stop-color="#0750A1"/>
</linearGradient>
<linearGradient id="paint2_linear_232_126" x1="695.5" y1="88" x2="695.5" y2="33" gradientUnits="userSpaceOnUse">
<stop stop-color="#0750A1"/>
<stop offset="1" stop-color="#0750A1"/>
</linearGradient>
</defs>
</svg>
