<svg width="697" height="103" viewBox="0 0 697 103" fill="none" xmlns="http://www.w3.org/2000/svg">
<g filter="url(#filter0_d_232_126)">
<path d="M4.22727 29.2501V20.1819H58.2614V29.2501H36.4773V90.0001H25.9773V29.2501H4.22727ZM74.7767 58.9092V90.0001H64.5835V20.1819H74.6403V46.1592H75.2881C76.5153 43.341 78.3903 41.1024 80.9131 39.4433C83.4358 37.7842 86.7313 36.9547 90.7994 36.9547C94.3903 36.9547 97.5267 37.6933 100.209 39.1706C102.913 40.6478 105.004 42.8524 106.481 45.7842C107.981 48.6933 108.731 52.3297 108.731 56.6933V90.0001H98.5381V57.9206C98.5381 54.0797 97.5494 51.1024 95.5722 48.9888C93.5949 46.8524 90.8449 45.7842 87.3222 45.7842C84.9131 45.7842 82.754 46.2956 80.8449 47.3183C78.9585 48.341 77.4699 49.841 76.379 51.8183C75.3108 53.7728 74.7767 56.1365 74.7767 58.9092ZM117.534 90.0001V37.6365H127.386V45.9547H127.931C128.886 43.1365 130.568 40.9206 132.977 39.3069C135.409 37.6706 138.159 36.8524 141.227 36.8524C141.863 36.8524 142.613 36.8751 143.477 36.9206C144.363 36.966 145.056 37.0228 145.556 37.091V46.841C145.147 46.7274 144.42 46.6024 143.374 46.466C142.329 46.3069 141.284 46.2274 140.238 46.2274C137.829 46.2274 135.681 46.7388 133.795 47.7615C131.931 48.7615 130.454 50.1592 129.363 51.9547C128.272 53.7274 127.727 55.7501 127.727 58.0228V90.0001H117.534ZM149.577 90.0001V37.6365H159.77V90.0001H149.577ZM154.725 29.5569C152.952 29.5569 151.43 28.966 150.157 27.7842C148.907 26.5797 148.282 25.1478 148.282 23.4888C148.282 21.8069 148.907 20.3751 150.157 19.1933C151.43 17.9888 152.952 17.3865 154.725 17.3865C156.498 17.3865 158.009 17.9888 159.259 19.1933C160.532 20.3751 161.168 21.8069 161.168 23.4888C161.168 25.1478 160.532 26.5797 159.259 27.7842C158.009 28.966 156.498 29.5569 154.725 29.5569ZM213.479 37.6365L194.49 90.0001H183.581L164.559 37.6365H175.502L188.763 77.9319H189.309L202.536 37.6365H213.479ZM239.045 91.0569C233.886 91.0569 229.443 89.9547 225.716 87.7501C222.011 85.5228 219.148 82.3978 217.125 78.3751C215.125 74.3297 214.125 69.591 214.125 64.1592C214.125 58.7956 215.125 54.0683 217.125 49.9774C219.148 45.8865 221.966 42.6933 225.58 40.3978C229.216 38.1024 233.466 36.9547 238.33 36.9547C241.284 36.9547 244.148 37.4433 246.92 38.4206C249.693 39.3978 252.182 40.9319 254.386 43.0228C256.591 45.1138 258.33 47.8297 259.602 51.1706C260.875 54.4888 261.511 58.5228 261.511 63.2728V66.8865H219.886V59.2501H251.523C251.523 56.5683 250.977 54.1933 249.886 52.1251C248.795 50.0342 247.261 48.3865 245.284 47.1819C243.33 45.9774 241.034 45.3751 238.398 45.3751C235.534 45.3751 233.034 46.0797 230.898 47.4888C228.784 48.8751 227.148 50.6933 225.989 52.9433C224.852 55.1706 224.284 57.591 224.284 60.2047V66.1706C224.284 69.6706 224.898 72.6478 226.125 75.1024C227.375 77.5569 229.114 79.4319 231.341 80.7274C233.568 82.0001 236.17 82.6365 239.148 82.6365C241.08 82.6365 242.841 82.3638 244.432 81.8183C246.023 81.2501 247.398 80.4092 248.557 79.2956C249.716 78.1819 250.602 76.8069 251.216 75.1706L260.864 76.9092C260.091 79.7501 258.705 82.2388 256.705 84.3751C254.727 86.4888 252.239 88.1365 249.239 89.3183C246.261 90.4774 242.864 91.0569 239.045 91.0569ZM268.839 20.1819H281.623L303.851 74.4547H304.669L326.896 20.1819H339.68V90.0001H329.657V39.4774H329.01L308.419 89.8978H300.101L279.51 39.4433H278.862V90.0001H268.839V20.1819ZM371.945 91.0569C366.786 91.0569 362.343 89.9547 358.616 87.7501C354.911 85.5228 352.048 82.3978 350.025 78.3751C348.025 74.3297 347.025 69.591 347.025 64.1592C347.025 58.7956 348.025 54.0683 350.025 49.9774C352.048 45.8865 354.866 42.6933 358.48 40.3978C362.116 38.1024 366.366 36.9547 371.23 36.9547C374.184 36.9547 377.048 37.4433 379.82 38.4206C382.593 39.3978 385.082 40.9319 387.286 43.0228C389.491 45.1138 391.23 47.8297 392.502 51.1706C393.775 54.4888 394.411 58.5228 394.411 63.2728V66.8865H352.786V59.2501H384.423C384.423 56.5683 383.877 54.1933 382.786 52.1251C381.695 50.0342 380.161 48.3865 378.184 47.1819C376.23 45.9774 373.934 45.3751 371.298 45.3751C368.434 45.3751 365.934 46.0797 363.798 47.4888C361.684 48.8751 360.048 50.6933 358.889 52.9433C357.752 55.1706 357.184 57.591 357.184 60.2047V66.1706C357.184 69.6706 357.798 72.6478 359.025 75.1024C360.275 77.5569 362.014 79.4319 364.241 80.7274C366.468 82.0001 369.07 82.6365 372.048 82.6365C373.98 82.6365 375.741 82.3638 377.332 81.8183C378.923 81.2501 380.298 80.4092 381.457 79.2956C382.616 78.1819 383.502 76.8069 384.116 75.1706L393.764 76.9092C392.991 79.7501 391.605 82.2388 389.605 84.3751C387.627 86.4888 385.139 88.1365 382.139 89.3183C379.161 90.4774 375.764 91.0569 371.945 91.0569ZM420.523 91.0228C416.296 91.0228 412.523 89.9433 409.205 87.7842C405.91 85.6024 403.319 82.5001 401.432 78.4774C399.569 74.4319 398.637 69.5797 398.637 63.9206C398.637 58.2615 399.58 53.4206 401.466 49.3978C403.376 45.3751 405.989 42.2956 409.307 40.1592C412.626 38.0229 416.387 36.9547 420.591 36.9547C423.841 36.9547 426.455 37.5001 428.432 38.591C430.432 39.6592 431.978 40.9092 433.069 42.341C434.182 43.7728 435.046 45.0342 435.66 46.1251H436.273V20.1819H446.466V90.0001H436.512V81.8524H435.66C435.046 82.966 434.16 84.2388 433.001 85.6706C431.864 87.1024 430.296 88.3524 428.296 89.4206C426.296 90.4888 423.705 91.0228 420.523 91.0228ZM422.773 82.3297C425.705 82.3297 428.182 81.5569 430.205 80.0115C432.251 78.4433 433.796 76.2728 434.841 73.5001C435.91 70.7274 436.444 67.5001 436.444 63.8183C436.444 60.1819 435.921 57.0001 434.876 54.2728C433.83 51.5456 432.296 49.4206 430.273 47.8978C428.251 46.3751 425.751 45.6138 422.773 45.6138C419.705 45.6138 417.148 46.4092 415.103 48.0001C413.057 49.591 411.512 51.7615 410.466 54.5115C409.444 57.2615 408.932 60.3638 408.932 63.8183C408.932 67.3183 409.455 70.466 410.501 73.2615C411.546 76.0569 413.091 78.2728 415.137 79.9092C417.205 81.5228 419.751 82.3297 422.773 82.3297ZM457.033 90.0001V20.1819H481.919C487.351 20.1819 491.851 21.1706 495.419 23.1478C498.987 25.1251 501.658 27.8297 503.431 31.2615C505.203 34.6706 506.09 38.5115 506.09 42.7842C506.09 47.0797 505.192 50.9433 503.397 54.3751C501.624 57.7842 498.942 60.4888 495.351 62.4888C491.783 64.466 487.294 65.4547 481.885 65.4547H464.772V56.5228H480.931C484.362 56.5228 487.147 55.9319 489.283 54.7501C491.419 53.5456 492.987 51.9092 493.987 49.841C494.987 47.7728 495.487 45.4206 495.487 42.7842C495.487 40.1478 494.987 37.8069 493.987 35.7615C492.987 33.716 491.408 32.1138 489.249 30.9547C487.112 29.7956 484.294 29.216 480.794 29.216H467.567V90.0001H457.033ZM523.014 20.1819V90.0001H512.821V20.1819H523.014ZM565.098 68.2842V37.6365H575.325V90.0001H565.302V80.9319H564.757C563.552 83.7274 561.62 86.0569 558.961 87.9206C556.325 89.7615 553.041 90.6819 549.109 90.6819C545.745 90.6819 542.768 89.9433 540.177 88.466C537.609 86.966 535.586 84.7501 534.109 81.8183C532.655 78.8865 531.927 75.2615 531.927 70.9433V37.6365H542.12V69.716C542.12 73.2842 543.109 76.1251 545.086 78.2388C547.064 80.3524 549.632 81.4092 552.791 81.4092C554.7 81.4092 556.598 80.9319 558.484 79.9774C560.393 79.0228 561.973 77.5797 563.223 75.6478C564.495 73.716 565.12 71.2615 565.098 68.2842ZM623.46 50.4206L614.221 52.0569C613.835 50.8751 613.221 49.7501 612.38 48.6819C611.562 47.6138 610.448 46.7388 609.039 46.0569C607.63 45.3751 605.869 45.0342 603.755 45.0342C600.869 45.0342 598.46 45.6819 596.528 46.9774C594.596 48.2501 593.63 49.8978 593.63 51.9206C593.63 53.6706 594.278 55.0797 595.573 56.1478C596.869 57.216 598.96 58.091 601.846 58.7728L610.164 60.6819C614.982 61.7956 618.573 63.5115 620.937 65.8297C623.301 68.1478 624.482 71.1592 624.482 74.8638C624.482 78.0001 623.573 80.7956 621.755 83.2501C619.96 85.6819 617.448 87.591 614.221 88.9774C611.017 90.3638 607.301 91.0569 603.073 91.0569C597.21 91.0569 592.426 89.8069 588.721 87.3069C585.017 84.7842 582.744 81.2047 581.903 76.5683L591.755 75.0683C592.369 77.6365 593.63 79.5797 595.539 80.8978C597.448 82.1933 599.937 82.841 603.005 82.841C606.346 82.841 609.017 82.1478 611.017 80.7615C613.017 79.3524 614.017 77.6365 614.017 75.6138C614.017 73.9774 613.403 72.6024 612.176 71.4888C610.971 70.3751 609.119 69.5342 606.619 68.966L597.755 67.0228C592.869 65.9092 589.255 64.1365 586.914 61.7047C584.596 59.2728 583.437 56.1933 583.437 52.466C583.437 49.3751 584.301 46.6706 586.028 44.3524C587.755 42.0342 590.142 40.2274 593.187 38.9319C596.232 37.6138 599.721 36.9547 603.653 36.9547C609.312 36.9547 613.767 38.1819 617.017 40.6365C620.267 43.0683 622.414 46.3297 623.46 50.4206Z" fill="url(#paint0_linear_232_126)"/>
</g>
<g filter="url(#filter1_d_232_126)">
<path d="M671.148 9C674.05 17.9908 673.389 32.5903 654.31 42.564C635.231 52.5378 638.162 73.5813 638.162 73.5813C641.957 95.4988 679.852 97.4079 691.459 67.4388C703.066 37.4697 671.148 9 671.148 9ZM653.509 75.6819C679.623 62.1964 675.5 37.4704 675.5 37.4704C678.402 73.4325 653.509 75.6819 653.509 75.6819Z" fill="#047051"/>
<path d="M652.461 5.63075C652.07 4.12356 649.93 4.12356 649.539 5.63075V5.63075C649.226 6.83523 647.673 7.16549 646.897 6.19227V6.19227C645.927 4.97447 643.972 5.84493 644.227 7.38088V7.38088C644.432 8.60836 643.147 9.54205 642.042 8.96837V8.96837C640.661 8.25052 639.229 9.84092 640.087 11.1401V11.1401C640.773 12.1783 639.979 13.554 638.737 13.479V13.479C637.182 13.3853 636.521 15.4206 637.834 16.2583V16.2583C638.883 16.9278 638.716 18.5076 637.551 18.9443V18.9443C636.093 19.4908 636.317 21.6192 637.857 21.8506V21.8506C639.087 22.0356 639.578 23.5463 638.691 24.4192V24.4192C637.582 25.5115 638.652 27.3649 640.152 26.95V26.95C641.352 26.6185 642.415 27.7989 641.96 28.9571V28.9571C641.39 30.4063 643.122 31.6643 644.324 30.6748V30.6748C645.285 29.8841 646.736 30.5302 646.791 31.7733V31.7733C646.86 33.3289 648.954 33.7738 649.65 32.3809V32.3809C650.206 31.2677 651.794 31.2677 652.35 32.3809V32.3809C653.046 33.7738 655.14 33.3289 655.209 31.7733V31.7733C655.264 30.5302 656.715 29.8841 657.676 30.6748V30.6748C658.878 31.6643 660.61 30.4063 660.04 28.9571V28.9571C659.585 27.7989 660.648 26.6185 661.848 26.95V26.95C663.348 27.3649 664.418 25.5115 663.309 24.4192V24.4192C662.422 23.5463 662.913 22.0356 664.143 21.8506V21.8506C665.683 21.6192 665.907 19.4908 664.449 18.9443V18.9443C663.284 18.5076 663.117 16.9278 664.166 16.2583V16.2583C665.479 15.4206 664.818 13.3853 663.263 13.479V13.479C662.021 13.554 661.227 12.1783 661.913 11.1401V11.1401C662.771 9.84092 661.339 8.25052 659.958 8.96837V8.96837C658.853 9.54205 657.568 8.60836 657.773 7.38088V7.38088C658.028 5.84493 656.073 4.97447 655.103 6.19227V6.19227C654.327 7.16549 652.774 6.83523 652.461 5.63075V5.63075Z" fill="#047051"/>
</g>
<defs>
<filter id="filter0_d_232_126" x="4.22729" y="17.3865" width="623.255" height="76.6704" filterUnits="userSpaceOnUse" color-interpolation-filters="sRGB">
<feFlood flood-opacity="0" result="BackgroundImageFix"/>
<feColorMatrix in="SourceAlpha" type="matrix" values="0 0 0 0 0 0 0 0 0 0 0 0 0 0 0 0 0 0 127 0" result="hardAlpha"/>
<feOffset dx="2" dy="2"/>
<feGaussianBlur stdDeviation="0.5"/>
<feComposite in2="hardAlpha" operator="out"/>
<feColorMatrix type="matrix" values="0 0 0 0 0 0 0 0 0 0 0 0 0 0 0 0 0 0 0.25 0"/>
<feBlend mode="normal" in2="BackgroundImageFix" result="effect1_dropShadow_232_126"/>
<feBlend mode="normal" in="SourceGraphic" in2="effect1_dropShadow_232_126" result="shape"/>
</filter>
<filter id="filter1_d_232_126" x="636.571" y="4.50037" width="60.4289" height="88.4996" filterUnits="userSpaceOnUse" color-interpolation-filters="sRGB">
<feFlood flood-opacity="0" result="BackgroundImageFix"/>
<feColorMatrix in="SourceAlpha" type="matrix" values="0 0 0 0 0 0 0 0 0 0 0 0 0 0 0 0 0 0 127 0" result="hardAlpha"/>
<feOffset dx="2" dy="2"/>
<feGaussianBlur stdDeviation="0.5"/>
<feComposite in2="hardAlpha" operator="out"/>
<feColorMatrix type="matrix" values="0 0 0 0 0 0 0 0 0 0 0 0 0 0 0 0 0 0 0.25 0"/>
<feBlend mode="normal" in2="BackgroundImageFix" result="effect1_dropShadow_232_126"/>
<feBlend mode="normal" in="SourceGraphic" in2="effect1_dropShadow_232_126" result="shape"/>
</filter>
<linearGradient id="paint0_linear_232_126" x1="0" y1="55.5001" x2="639" y2="55.5001" gradientUnits="userSpaceOnUse">
<stop offset="0.312476" stop-color="#047051"/>
<stop offset="0.420327" stop-color="#F2CE00"/>
<stop offset="0.67001" stop-color="#F2CE00"/>
<stop offset="0.751268" stop-color="#D4490D"/>
</linearGradient>
</defs>
</svg>
